<?xml version="1.0" encoding="iso-8859-1"?>
<!-- Generator: Adobe Illustrator 15.0.0, SVG Export Plug-In . SVG Version: 6.00 Build 0)  -->
<!DOCTYPE svg PUBLIC "-//W3C//DTD SVG 1.1//EN" "http://www.w3.org/Graphics/SVG/1.1/DTD/svg11.dtd">
<svg version="1.1" id="Icons" xmlns="http://www.w3.org/2000/svg" xmlns:xlink="http://www.w3.org/1999/xlink" x="0px" y="0px"
	 width="100px" height="100px" viewBox="0 0 100 100" style="enable-background:new 0 0 100 100;" xml:space="preserve">
<path id="AIM" style="fill-rule:evenodd;clip-rule:evenodd;" d="M60.457,62.772c9.332,4.538,19.13,12.87,23.121,22.503
	c-5.119,4.148-5.785,4.666-11.801,9.725C65.982,83.845,58.965,77.696,49.37,75.235c-5.633,7.26-14.804,15.737-29.144,19.652
	c-3.196-6.765-4.067-8.677-6.226-13.781c11.469-2.658,15.649-6.284,21.264-17.039c-0.402-13.055,2.953-25.891,11.324-31.026
	c4.352,1.427,11.55,5.72,13.598,6.37c-0.29,1.325,0.664,2.83,4.178,3.6c2.666,0.584,8.938,1.505,14.99-3.986
	C83.065,44.73,86,50.244,86,50.244s-11.585,11.505-25.295,7.893C60.612,59.925,60.545,60.494,60.457,62.772z M62.084,30.601
	c-7.007,0-12.865-5.73-12.865-12.8C49.219,10.73,55.077,5,62.084,5c7.003,0,12.953,5.73,12.953,12.801
	C75.037,24.87,69.087,30.601,62.084,30.601z"/>
</svg>
