<?xml version="1.0" encoding="iso-8859-1"?>
<!-- Generator: Adobe Illustrator 15.0.0, SVG Export Plug-In . SVG Version: 6.00 Build 0)  -->
<!DOCTYPE svg PUBLIC "-//W3C//DTD SVG 1.1//EN" "http://www.w3.org/Graphics/SVG/1.1/DTD/svg11.dtd">
<svg version="1.1" id="Layer_1" xmlns="http://www.w3.org/2000/svg" xmlns:xlink="http://www.w3.org/1999/xlink" x="0px" y="0px"
	 width="100px" height="100px" viewBox="0 0 100 100" style="enable-background:new 0 0 100 100;" xml:space="preserve">
<path id="AIM__x28_alt_x29_" d="M47.261,15.071C71.127,16.188,96.02,32.79,94.969,54.694c-0.774,16.029-17.267,30.15-43.018,30.304
	c-11.03,0.068-17.843-1.851-22.484-3.692c-0.352-0.138-0.499-0.241-0.487-0.408c0.04-0.178,0.231-0.178,0.689-0.073
	c11.379,2.707,15.417-1.887,13.505-5.332c-2.113-3.823-16.564-3.573-26.88-10.749l0.094-0.23c0,0,0.682-1.636,0.883-2.086
	c0.162-0.378,0.311-0.564,0.714-0.559h12.509c0.389-0.006,0.575,0.181,0.799,0.665c0.255,0.592,1.267,3.059,1.267,3.059
	c0.002,0.015,0.851,2.273,2.964,2.347c0.519,0.022,2.32-0.202,2.915-2.074c0.172-0.54,0.156-1.009,0.081-1.363
	c-0.032-0.19-0.081-0.331-0.124-0.46c-0.053-0.123-0.097-0.211-0.119-0.273c-0.16-0.343-12.861-28.756-12.889-28.826
	c-0.252-0.561-0.523-1.026-1.119-1.026c-0.287-0.006-0.486,0.109-0.646,0.285c-0.093,0.101-0.168,0.208-0.248,0.334
	c-0.077,0.138-0.153,0.278-0.225,0.419c-0.135,0.267-7.506,16.714-11.049,24.626l-0.483,1.085c-1.21-1.317-1.795-2.213-1.795-2.213
	C7.481,55.356,5.32,50.239,5.05,45.856C3.962,28.04,21.396,13.864,47.261,15.071z M48.063,64.504V37.335
	c0-2.2-1.201-3.163-3.26-3.163c-2.062,0-3.279,0.963-3.279,3.163v27.169c0,2.203,1.206,3.153,3.265,3.153
	C46.849,67.657,48.063,66.707,48.063,64.504z M86.296,64.504V37.335c0-2.2-1.164-3.163-3.221-3.163c-1.107,0-1.948,0.288-2.496,0.85
	c-0.309,0.303-0.584,0.704-0.827,1.22L70.22,57.337l-9.313-21.096c-0.239-0.516-0.52-0.917-0.823-1.22
	c-0.556-0.562-1.397-0.85-2.5-0.85c-2.065,0-3.217,0.963-3.217,3.163v27.169c0,2.203,1.263,3.153,3.321,3.153
	c2.062,0,3.254-0.95,3.254-3.153V51.799L67.3,64.773c0.539,0.968,1.586,2.071,2.895,2.038c1.439,0.033,2.574-1.016,3.201-2.068
	l6.332-12.907v12.668c0,2.203,1.188,3.153,3.244,3.153C85.036,67.657,86.296,66.707,86.296,64.504z M28.004,56.252h-7.502
	c-0.375,0-0.395-0.372-0.321-0.549l3.646-8.608l0.04-0.092c0.02-0.053,0.039-0.101,0.066-0.141c0.041-0.059,0.141-0.218,0.32-0.218
	s0.275,0.159,0.319,0.218l0.061,0.141l0.048,0.086l3.631,8.602C28.439,55.97,28.331,56.252,28.004,56.252z"/>
</svg>
