<?xml version="1.0" encoding="iso-8859-1"?>
<!-- Generator: Adobe Illustrator 15.0.0, SVG Export Plug-In . SVG Version: 6.00 Build 0)  -->
<!DOCTYPE svg PUBLIC "-//W3C//DTD SVG 1.1//EN" "http://www.w3.org/Graphics/SVG/1.1/DTD/svg11.dtd">
<svg version="1.1" id="Icons" xmlns="http://www.w3.org/2000/svg" xmlns:xlink="http://www.w3.org/1999/xlink" x="0px" y="0px"
	 width="100px" height="100px" viewBox="0 0 100 100" style="enable-background:new 0 0 100 100;" xml:space="preserve">
<path id="App_Store" d="M5,59.139V46.926c0-1.119,0.919-2.034,2.045-2.034h21.581L19.23,61.175H7.045
	C5.919,61.175,5,60.262,5,59.139z M20.373,84.147l-6.887,4.666c-0.927,0.63-1.582,0.231-1.454-0.881l0.919-7.984
	c0.128-1.112,1.03-1.566,2.005-1.01l5.33,3.045C21.26,82.541,21.3,83.519,20.373,84.147z M22.027,79.647l-5.33-3.046
	c-0.975-0.557-1.318-1.805-0.751-2.776l24.681-42.784c0.56-0.972,1.822-1.313,2.796-0.749l5.33,3.038
	c0.975,0.564,1.31,1.813,0.751,2.782L24.823,78.899C24.264,79.869,23.001,80.202,22.027,79.647z M40.811,61.175l9.396-16.283h5.41
	l7.63,16.283H40.811z M71.413,66.034c-2.133-1.065-12.76-25.476-15.484-31.845c-2.725-6.369-10.955-23.323-8.293-24.642
	c1.894-0.946,8.693,12.404,13.79,20.419c5.09,8.015,15.733,28.681,17.043,31.034c1.303,2.36-1.254,4.326-2.676,4.915
	C74.37,66.504,73.546,67.091,71.413,66.034z M78.397,77.254l-3.212-5.05c-0.663-1.05-0.319-2.347,0.759-2.901l3.06-1.567
	c1.079-0.549,2.429-0.104,3.004,0.995l2.533,4.85c0.576,1.097,0.184,2.505-0.855,3.125l-2.189,1.303
	C80.458,78.637,79.06,78.295,78.397,77.254z M90.214,90.5c-0.671-2.139-5.793-2.281-8.086-5.503c-2.301-3.211-0.399-4.865,0.4-5.629
	C91.828,74.153,90.214,90.5,90.214,90.5z M95,59.139c0,1.123-0.919,2.036-2.045,2.036H82.152c-0.119-0.628-0.312-1.256-0.639-1.845
	c-0.28-0.501-0.991-1.852-1.982-3.736c-1.43-2.719-3.483-6.607-5.681-10.702h19.104c1.126,0,2.045,0.915,2.045,2.034V59.139z"/>
</svg>
