<?xml version="1.0" encoding="iso-8859-1"?>
<!-- Generator: Adobe Illustrator 15.0.0, SVG Export Plug-In . SVG Version: 6.00 Build 0)  -->
<!DOCTYPE svg PUBLIC "-//W3C//DTD SVG 1.1//EN" "http://www.w3.org/Graphics/SVG/1.1/DTD/svg11.dtd">
<svg version="1.1" id="Layer_1" xmlns="http://www.w3.org/2000/svg" xmlns:xlink="http://www.w3.org/1999/xlink" x="0px" y="0px"
	 width="100px" height="100px" viewBox="0 0 100 100" style="enable-background:new 0 0 100 100;" xml:space="preserve">
<path id="Baidu" d="M29.013,38.588c0.535,7.65-3.611,14.173-9.264,14.57c-5.651,0.396-10.667-5.483-11.202-13.135
	c-0.535-7.65,3.611-14.174,9.264-14.571C23.463,25.056,28.479,30.937,29.013,38.588z M67.939,6.874
	c-5.491-1.401-11.474,3.489-13.363,10.921c-1.894,7.432,1.024,14.592,6.515,15.993c5.489,1.4,11.475-3.488,13.364-10.921
	C76.915,13.194,69.255,7.208,67.939,6.874z M80.813,31.925c-5.776,0.086-10.359,5.579-10.232,14.088
	c0.126,8.508,4.904,12.387,10.684,12.301c5.773-0.086,10.358-4.102,10.233-12.614C91.331,34.626,82.196,31.905,80.813,31.925z
	 M38.966,5c-5.496,0-9.951,6.16-9.951,13.756s4.455,13.753,9.951,13.753s9.952-6.157,9.952-13.753S44.462,5,38.966,5z M37.694,47.72
	c-3.175,4.559-6.775,9.01-13.762,14.842c-6.988,5.832-9.952,9.859-9.952,15.795s3.388,15.795,13.022,15.795
	c9.634,0,14.292-2.121,21.915-2.121C56.54,92.031,61.623,95,71.256,95c9.635,0,13.658-9.117,13.658-15.053s-1.672-9.297-9.39-16.072
	c-4.946-4.346-9.138-7.885-15.702-17.002c-3.246-4.508-6.988-5.088-10.904-5.088C45,41.785,40.871,43.163,37.694,47.72z"/>
</svg>
