<?xml version="1.0" encoding="iso-8859-1"?>
<!-- Generator: Adobe Illustrator 15.0.0, SVG Export Plug-In . SVG Version: 6.00 Build 0)  -->
<!DOCTYPE svg PUBLIC "-//W3C//DTD SVG 1.1//EN" "http://www.w3.org/Graphics/SVG/1.1/DTD/svg11.dtd">
<svg version="1.1" id="Layer_1" xmlns="http://www.w3.org/2000/svg" xmlns:xlink="http://www.w3.org/1999/xlink" x="0px" y="0px"
	 width="100px" height="100px" viewBox="0 0 100 100" style="enable-background:new 0 0 100 100;" xml:space="preserve">
<path id="Basecamp" d="M5.378,70.161c0.633,0.934,1.317,1.832,2.046,2.693c1.457,1.717,3.099,3.273,4.875,4.654
	c3.78,2.935,8.14,5.041,12.67,6.523c5.24,1.718,10.721,2.634,16.203,3.09c6.359,0.529,12.804,0.522,19.149-0.145
	c5.878-0.618,11.734-1.84,17.241-4.028c4.875-1.938,9.359-4.705,13.279-8.204c1.013-0.908,1.994-1.877,2.802-2.979
	c0.682-0.931,1.229-1.96,1.327-3.128c0.112-1.369-0.113-2.762-0.383-4.098c-0.3-1.481-0.694-2.939-1.067-4.402
	c-0.138-0.533-0.27-1.066-0.39-1.602c-1.438-6.339-3.634-12.512-6.616-18.286c-2.527-4.892-5.646-9.511-9.266-13.657
	c-3.381-3.873-7.315-7.26-11.832-9.728c-2.399-1.31-4.936-2.355-7.549-3.139c-1.412-0.425-2.848-0.774-4.295-1.056
	c-0.371-0.073-0.746-0.167-1.124-0.167c-0.478,0-0.956,0-1.435,0c-0.92,0-1.84,0-2.76,0c-0.42,0-0.844-0.02-1.262,0.031
	c-0.385,0.046-0.77,0.101-1.155,0.164c-0.733,0.12-1.462,0.266-2.186,0.439c-1.435,0.345-2.846,0.795-4.22,1.335
	c-2.747,1.08-5.35,2.517-7.778,4.192c-4.745,3.272-8.866,7.437-12.335,12.033c-3.678,4.875-6.616,10.294-8.886,15.96
	c-2.413,6.026-4.079,12.34-5.109,18.749C5.191,66.229,5,67.083,5,67.916c0,0.448,0,0.896,0,1.341c0,0.215-0.005,0.33,0.113,0.508
	C5.201,69.897,5.287,70.028,5.378,70.161z M11.243,66.187c0.076-0.424,0.165-0.845,0.263-1.264c0.187-0.786,0.412-1.563,0.675-2.33
	c1.008-2.947,2.531-5.681,4.165-8.32c0.813-1.309,1.644-2.605,2.471-3.904c0.844-1.327,1.705-2.646,2.674-3.885
	c1.572-2.012,3.506-4.181,6.013-4.991c3.523-1.137,6.158,2.53,8.196,4.794c1.16,1.285,2.409,2.638,4.006,3.371
	c0.736,0.338,1.538,0.512,2.348,0.462c1.181-0.075,2.228-0.886,3.106-1.615c2.406-1.996,4.369-4.518,6.243-7.003
	c2.051-2.72,4.032-5.497,6.378-7.975c0.962-1.015,1.987-2.362,3.365-2.811c0.629-0.205,1.315-0.142,1.914,0.134
	c0.328,0.151,0.628,0.364,0.888,0.616c0.295,0.286,0.646,0.511,0.975,0.759c2.517,1.905,4.845,4.057,7.045,6.32
	c1.914,1.968,3.731,4.028,5.471,6.154c1.695,2.077,3.326,4.192,4.729,6.485c1.705,2.793,3.147,5.73,4.735,8.589
	c1.449,2.608,2.914,5.624,1.467,8.565c-0.076,0.155-0.159,0.311-0.248,0.459c-2.568,4.345-7.202,7.051-11.777,8.822
	c-5.51,2.131-11.442,3.146-17.314,3.557c-6.069,0.426-12.212,0.406-18.271-0.162c-5.476-0.514-10.99-1.489-16.142-3.479
	c-4.306-1.663-8.457-4.121-11.337-7.811c-0.672-0.861-1.268-1.781-1.775-2.75c-0.06-0.115-0.12-0.233-0.18-0.352
	C11.241,66.45,11.209,66.38,11.243,66.187z"/>
</svg>
