<?xml version="1.0" encoding="iso-8859-1"?>
<!-- Generator: Adobe Illustrator 15.0.0, SVG Export Plug-In . SVG Version: 6.00 Build 0)  -->
<!DOCTYPE svg PUBLIC "-//W3C//DTD SVG 1.1//EN" "http://www.w3.org/Graphics/SVG/1.1/DTD/svg11.dtd">
<svg version="1.1" id="Icons" xmlns="http://www.w3.org/2000/svg" xmlns:xlink="http://www.w3.org/1999/xlink" x="0px" y="0px"
	 width="100px" height="100px" viewBox="0 0 100 100" style="enable-background:new 0 0 100 100;" xml:space="preserve">
<path id="Bebo" d="M54.5,95h-9c-19.854,0-36-16.154-36-36V14c0-4.975,4.025-9,9-9c4.966,0,9,4.025,9,9v45c0,9.923,8.077,18,18,18h9
	c9.923,0,18-7.066,18-15.75c0-8.877-4.843-15.75-9-15.75h-18c-4.975,0-9-4.034-9-9c0-4.975,4.025-9,9-9h18
	c14.889,0,27,15.135,27,33.75C90.5,79.856,74.346,95,54.5,95z"/>
</svg>
