<?xml version="1.0" encoding="iso-8859-1"?>
<!-- Generator: Adobe Illustrator 15.0.0, SVG Export Plug-In . SVG Version: 6.00 Build 0)  -->
<!DOCTYPE svg PUBLIC "-//W3C//DTD SVG 1.1//EN" "http://www.w3.org/Graphics/SVG/1.1/DTD/svg11.dtd">
<svg version="1.1" id="Icons" xmlns="http://www.w3.org/2000/svg" xmlns:xlink="http://www.w3.org/1999/xlink" x="0px" y="0px"
	 width="100px" height="100px" viewBox="0 0 100 100" style="enable-background:new 0 0 100 100;" xml:space="preserve">
<path id="Bing" d="M5,11v48.064h0.063C5.735,75.675,25.565,89,50,89c24.856,0,45-13.783,45-30.79c0-17.006-20.144-30.789-45-30.789
	c-10.874,0-20.854,2.642-28.636,7.04V11H5z M50,37.685c15.82,0,28.636,9.188,28.636,20.525c0,11.339-12.815,20.527-28.636,20.527
	c-15.813,0-28.636-9.188-28.636-20.527C21.364,46.873,34.188,37.685,50,37.685z M31.071,58.21c0-7.497,8.477-13.566,18.929-13.566
	c10.459,0,18.929,6.069,18.929,13.566c0,7.494-8.47,13.568-18.929,13.568C39.548,71.778,31.071,65.704,31.071,58.21z"/>
</svg>
