<?xml version="1.0" encoding="iso-8859-1"?>
<!-- Generator: Adobe Illustrator 15.0.0, SVG Export Plug-In . SVG Version: 6.00 Build 0)  -->
<!DOCTYPE svg PUBLIC "-//W3C//DTD SVG 1.1//EN" "http://www.w3.org/Graphics/SVG/1.1/DTD/svg11.dtd">
<svg version="1.1" id="Icons" xmlns="http://www.w3.org/2000/svg" xmlns:xlink="http://www.w3.org/1999/xlink" x="0px" y="0px"
	 width="100px" height="100px" viewBox="0 0 100 100" style="enable-background:new 0 0 100 100;" xml:space="preserve">
<path id="Blogger" d="M66.296,95c15.692,0,28.439-12.783,28.527-28.389L95,43.633l-0.265-1.25l-0.754-1.573l-1.275-0.986
	C91.05,38.525,82.659,39.912,80.4,37.86c-1.603-1.464-1.853-4.109-2.338-7.694c-0.901-6.943-1.47-7.305-2.558-9.659
	C71.554,12.149,60.835,5.868,53.47,5H33.523C17.83,5,5,17.802,5,33.438v33.173C5,82.217,17.83,95,33.523,95H66.296z M33.886,28.233
	h15.815c3.019,0,5.465,2.451,5.465,5.43c0,2.967-2.446,5.438-5.465,5.438H33.886c-3.02,0-5.46-2.472-5.46-5.438
	C28.426,30.684,30.866,28.233,33.886,28.233z M28.426,66.191c0-2.978,2.44-5.411,5.46-5.411h32.135c3,0,5.436,2.433,5.436,5.411
	c0,2.939-2.436,5.41-5.436,5.41H33.886C30.866,71.602,28.426,69.13,28.426,66.191z"/>
</svg>
