<?xml version="1.0" encoding="iso-8859-1"?>
<!-- Generator: Adobe Illustrator 15.0.0, SVG Export Plug-In . SVG Version: 6.00 Build 0)  -->
<!DOCTYPE svg PUBLIC "-//W3C//DTD SVG 1.1//EN" "http://www.w3.org/Graphics/SVG/1.1/DTD/svg11.dtd">
<svg version="1.1" id="Layer_1" xmlns="http://www.w3.org/2000/svg" xmlns:xlink="http://www.w3.org/1999/xlink" x="0px" y="0px"
	 width="100px" height="100px" viewBox="0 0 100 100" style="enable-background:new 0 0 100 100;" xml:space="preserve">
<path id="CloudApp" d="M24.124,82.441l-0.006,0.021h0.46c0.238,0.01,0.473,0.037,0.713,0.037c0.242,0,0.476-0.027,0.714-0.037
	h45.103v-0.012c0.33,0.012,0.652,0.049,0.984,0.049c12.652,0,22.909-10.34,22.909-23.094c0-12.756-10.257-23.095-22.909-23.095
	c-0.466,0-0.923,0.042-1.383,0.07C68.743,25.642,59.422,17.5,48.199,17.5c-12.651,0-22.908,10.34-22.908,23.095
	c0,0.335,0.036,0.664,0.05,0.996c-0.017,0-0.032-0.002-0.05-0.002c-11.205,0-20.29,9.157-20.29,20.455
	C5.001,72.943,13.465,81.828,24.124,82.441z"/>
</svg>
