<?xml version="1.0" encoding="iso-8859-1"?>
<!-- Generator: Adobe Illustrator 15.0.0, SVG Export Plug-In . SVG Version: 6.00 Build 0)  -->
<!DOCTYPE svg PUBLIC "-//W3C//DTD SVG 1.1//EN" "http://www.w3.org/Graphics/SVG/1.1/DTD/svg11.dtd">
<svg version="1.1" id="Icons" xmlns="http://www.w3.org/2000/svg" xmlns:xlink="http://www.w3.org/1999/xlink" x="0px" y="0px"
	 width="100px" height="100px" viewBox="0 0 100 100" style="enable-background:new 0 0 100 100;" xml:space="preserve">
<path id="Coroflot" d="M42.928,63.801c0,2.276-1.851,4.12-4.131,4.12s-4.128-1.844-4.128-4.12c0-2.278,1.848-4.129,4.128-4.129
	S42.928,61.522,42.928,63.801z M88.5,59.345c0,12.026-9.761,21.773-21.792,21.773c-0.19,0-0.376-0.016-0.565-0.021
	C62.34,89.299,54.053,95,44.412,95c-13.235,0-23.962-10.72-23.962-23.946c0-10.528,6.816-19.452,16.274-22.656
	c0.35-16.231-5.674-26.972-12.621-26.344c-7.269,0.659-13.215,0.659-12.552-2.971c0.658-3.627,6.604,0.332,7.269-4.291
	c0.656-4.616-2.645-6.596,2.31-9.235c4.562-2.431,5.759,3.535,5.403,9.39c16.871-4.132,30.864,16.121,35.184,23.228
	c1.605-0.378,3.27-0.604,4.992-0.604C78.739,37.569,88.5,47.318,88.5,59.345z M42.228,47.227c0.72-0.065,1.446-0.11,2.184-0.11
	c1.383,0,2.729,0.142,4.05,0.367c2.386-3.66,5.841-6.55,9.92-8.246c-12.098-18.982-22.666-21.406-28.69-20.714
	C40.44,26.692,42.006,43.226,42.228,47.227z M63.217,71.054c0-8.292-5.388-15.319-12.854-17.811
	c-0.009,0.023-0.02,0.046-0.028,0.068c-1.368-0.457-2.795-0.748-4.282-0.878c0.009-0.028,0.021-0.053,0.03-0.081
	c-0.551-0.05-1.106-0.085-1.671-0.085c-10.387,0-18.805,8.415-18.805,18.786c0,10.376,8.418,18.792,18.805,18.792
	c7.026,0,13.143-3.858,16.371-9.563c-0.025-0.007-0.05-0.012-0.074-0.02c0.715-1.264,1.284-2.606,1.693-4.028
	c0.023,0.005,0.048,0.009,0.07,0.014C62.948,74.597,63.217,72.858,63.217,71.054z M84.214,59.345
	c0-9.664-7.843-17.492-17.506-17.492c-5.643,0-10.632,2.683-13.817,6.835c9.043,3.424,15.482,12.134,15.482,22.366
	c0,1.979-0.267,3.892-0.719,5.731C76.874,76.291,84.214,68.681,84.214,59.345z"/>
</svg>
