<?xml version="1.0" encoding="iso-8859-1"?>
<!-- Generator: Adobe Illustrator 15.0.0, SVG Export Plug-In . SVG Version: 6.00 Build 0)  -->
<!DOCTYPE svg PUBLIC "-//W3C//DTD SVG 1.1//EN" "http://www.w3.org/Graphics/SVG/1.1/DTD/svg11.dtd">
<svg version="1.1" id="Layer_1" xmlns="http://www.w3.org/2000/svg" xmlns:xlink="http://www.w3.org/1999/xlink" x="0px" y="0px"
	 width="100px" height="100px" viewBox="0 0 100 100" style="enable-background:new 0 0 100 100;" xml:space="preserve">
<path id="Creative_Commons" d="M50.369,50c0-8.773,5.84-13.956,13.178-13.956c5.041,0,9.383,1.844,11.929,6.479l-5.987,3.14
	c-1.399-2.991-3.796-3.639-4.994-3.639c-4.44,0-6.04,3.44-6.04,7.976c0,4.537,1.898,7.976,6.04,7.976
	c2.397,0,4.294-0.898,5.54-3.889l5.593,2.842c-2.396,4.236-6.74,7.027-11.83,7.027C55.86,63.957,50.369,58.924,50.369,50z
	 M37.801,63.957c5.09,0,9.435-2.791,11.83-7.027l-5.59-2.842c-1.249,2.99-3.146,3.889-5.541,3.889c-4.144,0-6.04-3.439-6.04-7.976
	c0-4.535,1.598-7.976,6.04-7.976c1.197,0,3.593,0.648,4.992,3.639l5.987-3.14c-2.544-4.636-6.888-6.479-11.929-6.479
	c-7.338,0-13.178,5.183-13.178,13.956C24.373,58.924,29.861,63.957,37.801,63.957z M18.209,81.687C9.565,73.055,5,61.959,5,50
	c0-11.835,4.689-23.177,13.331-31.931C26.728,9.563,37.593,5,49.938,5s23.457,4.563,32.101,13.192C90.558,26.7,95,37.796,95,50
	c0,12.33-4.442,23.301-12.839,31.562C73.272,90.315,61.791,95,49.938,95C38.087,95,26.85,90.315,18.209,81.687z M13.146,50
	c0,9.618,3.951,18.863,10.987,25.892C31.17,82.919,40.309,86.74,50.063,86.74c9.629,0,19.012-3.821,26.298-10.972
	C83.271,68.986,86.854,60.11,86.854,50c0-9.986-3.704-19.108-10.618-26.014c-7.039-7.026-16.049-10.848-26.173-10.848
	s-19.015,3.699-25.929,10.725C17.098,31.014,13.146,40.261,13.146,50z"/>
</svg>
