<?xml version="1.0" encoding="iso-8859-1"?>
<!-- Generator: Adobe Illustrator 15.0.0, SVG Export Plug-In . SVG Version: 6.00 Build 0)  -->
<!DOCTYPE svg PUBLIC "-//W3C//DTD SVG 1.1//EN" "http://www.w3.org/Graphics/SVG/1.1/DTD/svg11.dtd">
<svg version="1.1" id="Icons" xmlns="http://www.w3.org/2000/svg" xmlns:xlink="http://www.w3.org/1999/xlink" x="0px" y="0px"
	 width="100px" height="100px" viewBox="0 0 100 100" style="enable-background:new 0 0 100 100;" xml:space="preserve">
<path id="Delicious" d="M91.463,32.482c-3.419-8.079-9.122-14.943-16.3-19.794c-3.591-2.427-7.553-4.351-11.781-5.665
	C59.149,5.708,54.655,4.997,50.002,5c-6.205-0.003-12.133,1.259-17.517,3.538c-8.08,3.417-14.948,9.12-19.799,16.3
	c-2.425,3.591-4.348,7.552-5.663,11.783C5.706,40.85,4.999,45.349,5,50.001C4.999,56.205,6.259,62.134,8.538,67.52
	c3.417,8.077,9.121,14.941,16.3,19.794c3.59,2.427,7.551,4.345,11.784,5.663C40.851,94.295,45.349,95,50.002,95
	c6.202,0,12.131-1.257,17.515-3.535c8.081-3.419,14.945-9.119,19.798-16.3c2.424-3.594,4.347-7.556,5.662-11.785
	C94.293,59.152,95,54.654,95,50.001C95.002,43.795,93.743,37.869,91.463,32.482z M85.859,65.146
	c-2.953,6.979-7.893,12.926-14.106,17.121c-3.104,2.102-6.526,3.763-10.181,4.897c-3.653,1.134-7.536,1.746-11.57,1.751h-0.004
	V50.044H11.087c0-0.015,0-0.03,0-0.043c0-5.382,1.088-10.492,3.056-15.146c2.95-6.979,7.89-12.929,14.102-17.126
	c3.106-2.097,6.529-3.756,10.183-4.893c3.653-1.136,7.536-1.749,11.574-1.749v38.914h38.911
	C88.913,55.382,87.825,60.49,85.859,65.146z"/>
</svg>
