<?xml version="1.0" encoding="iso-8859-1"?>
<!-- Generator: Adobe Illustrator 15.0.0, SVG Export Plug-In . SVG Version: 6.00 Build 0)  -->
<!DOCTYPE svg PUBLIC "-//W3C//DTD SVG 1.1//EN" "http://www.w3.org/Graphics/SVG/1.1/DTD/svg11.dtd">
<svg version="1.1" id="Icons" xmlns="http://www.w3.org/2000/svg" xmlns:xlink="http://www.w3.org/1999/xlink" x="0px" y="0px"
	 width="100px" height="100px" viewBox="0 0 100 100" style="enable-background:new 0 0 100 100;" xml:space="preserve">
<polygon id="DesignBump" points="64.416,59.075 61,62.093 61,30 76.732,30 49.561,5 22.388,30 38,30 38,37.974 34.755,35.616 
	15.061,54 25,54 25,95 37.611,95 37.611,95 41.254,95 41.254,95 43,95 43,54 54.06,54 41,41.323 41,26 30.062,26 49.561,8.066 
	69.061,26 58,26 58,65.445 45.061,77 56,77 56,95 57.647,95 57.647,95 61.291,95 61.291,95 74,95 74,77 84.061,77 "/>
</svg>
