<?xml version="1.0" encoding="iso-8859-1"?>
<!-- Generator: Adobe Illustrator 15.0.0, SVG Export Plug-In . SVG Version: 6.00 Build 0)  -->
<!DOCTYPE svg PUBLIC "-//W3C//DTD SVG 1.1//EN" "http://www.w3.org/Graphics/SVG/1.1/DTD/svg11.dtd">
<svg version="1.1" id="Icons" xmlns="http://www.w3.org/2000/svg" xmlns:xlink="http://www.w3.org/1999/xlink" x="0px" y="0px"
	 width="100px" height="100px" viewBox="0 0 100 100" style="enable-background:new 0 0 100 100;" xml:space="preserve">
<path id="Designmoo" d="M68.934,69.191c-0.547,0-0.763,0.227-1.208,0.663c-0.792,0.988-2.249,2.852-4.7,5.262
	c-4.034,4.08-6.818,6.073-8.673,6.073l-0.414-0.036c-1.301-0.321-1.508-1.426-1.487-2.526c0.03-1.424,0.489-2.733,0.856-4.042
	c3.02-9.231,7.446-17.772,11.233-26.658c2.062-4.729,4.44-9.342,6.066-14.166c0.698-1.747,1.174-3.723,1.208-5.581
	c0.062-3.077-1.988-4.938-4.492-5.487l-0.379-0.059c-0.565,0-0.256,0.627-0.754,2.793c-0.252,1.423-0.719,2.848-1.18,4.271
	c-2.101,6.703-5.399,12.738-8.354,18.665l-0.901,1.745l-0.101-0.664c-0.598-3.397-4.267-5.468-7.656-5.468
	c-4.81,0-8.802,2.962-12.162,6.246c-4.342,4.272-7.747,10.084-9.478,15.361c-3.148,10.081-4.171,22.709,7.199,22.917
	c3.069,0,6.725-2.185,10.197-6.571l0.661-0.776c-0.001,0.113-0.01,0.436-0.016,0.666c-0.06,3.185,1.751,6.585,5.136,6.585
	c3.936,0,8.378-3.514,15.187-11.087c1.915-2.088,3.486-4.063,4.504-5.81c0.224-0.553,0.456-0.989,0.46-1.31
	C69.701,69.531,69.371,69.191,68.934,69.191z M45.121,73.254c-1.688,2.962-4.144,5.598-5.931,7.14
	c-1.041,0.833-2.012,1.194-2.883,1.194c-2.101,0-3.516-2.182-3.379-5.372c0.274-8.107,4.031-16.444,9.534-22.917
	c1.664-1.883,3.469-4.179,6.194-4.179c2.309,0,3.474,1.424,3.423,4.063C51.939,60.306,48.855,67.121,45.121,73.254z M41.52,20.061
	l4.958-1.301c0.73-0.191,1.48-0.941,1.67-1.673l1.297-4.977c0.186-0.727,0.497-0.727,0.688,0l1.297,4.977
	c0.192,0.731,0.938,1.482,1.667,1.673l4.96,1.301c0.726,0.188,0.726,0.501,0,0.692l-4.96,1.298
	c-0.729,0.193-1.475,0.944-1.667,1.672l-1.297,4.975c-0.19,0.729-0.502,0.729-0.688,0l-1.297-4.975
	c-0.19-0.729-0.94-1.479-1.67-1.672l-4.958-1.298C40.794,20.562,40.794,20.249,41.52,20.061z M27.222,55.771l-3.078-11.81
	c-0.507-1.946-2.507-3.952-4.45-4.462L6.452,36.026c-1.936-0.508-1.936-1.339,0-1.849l13.243-3.472
	c1.943-0.508,3.943-2.517,4.45-4.461l3.46-13.284c0.507-1.946,1.336-1.946,1.844,0l3.463,13.284
	c0.505,1.944,2.508,3.953,4.447,4.461l13.244,3.472c1.938,0.51,1.938,1.341,0,1.849l-13.244,3.473
	c-1.938,0.51-3.941,2.516-4.447,4.462l-1.582,6.074C29.836,51.782,28.448,53.72,27.222,55.771z M86.285,59.369l7.853,2.061
	c1.15,0.302,1.15,0.795,0,1.097l-7.853,2.057c-1.149,0.304-2.334,1.494-2.636,2.646l-2.056,7.876c-0.3,1.153-0.787,1.153-1.09,0
	l-2.054-7.876c-0.3-1.152-1.484-2.342-2.637-2.646l-7.849-2.057c-1.151-0.302-1.151-0.795,0-1.097l7.849-2.061
	c1.152-0.298,2.337-1.488,2.637-2.644l2.054-7.875c0.303-1.152,0.79-1.152,1.09,0l2.056,7.875
	C83.951,57.881,85.135,59.071,86.285,59.369z"/>
</svg>
