<?xml version="1.0" encoding="iso-8859-1"?>
<!-- Generator: Adobe Illustrator 15.0.0, SVG Export Plug-In . SVG Version: 6.00 Build 0)  -->
<!DOCTYPE svg PUBLIC "-//W3C//DTD SVG 1.1//EN" "http://www.w3.org/Graphics/SVG/1.1/DTD/svg11.dtd">
<svg version="1.1" id="Icons" xmlns="http://www.w3.org/2000/svg" xmlns:xlink="http://www.w3.org/1999/xlink" x="0px" y="0px"
	 width="100px" height="100px" viewBox="0 0 100 100" style="enable-background:new 0 0 100 100;" xml:space="preserve">
<path id="deviantART" d="M35.418,33.698c-0.263,0.041-0.492,0.104-0.754,0.149L30.334,25l-12.84,1.468l5.232,10.768
	C-4.349,48.481,7.648,75,7.648,75L48.96,63.038l-11.351-23.18c20.373-5.89,37.385,6.152,37.385,6.152l-14.023,3.81l-4.037-7.544
	c-3.799-0.709-8.124-0.925-12.732-0.152l9.549,19.519L95,49.69C95,49.69,80.04,26.057,35.418,33.698z M18.826,61.264
	c0,0-3.98-8.842,7.603-16.413l6.161,12.68L18.826,61.264z"/>
</svg>
