<?xml version="1.0" encoding="iso-8859-1"?>
<!-- Generator: Adobe Illustrator 15.0.0, SVG Export Plug-In . SVG Version: 6.00 Build 0)  -->
<!DOCTYPE svg PUBLIC "-//W3C//DTD SVG 1.1//EN" "http://www.w3.org/Graphics/SVG/1.1/DTD/svg11.dtd">
<svg version="1.1" id="Layer_1" xmlns="http://www.w3.org/2000/svg" xmlns:xlink="http://www.w3.org/1999/xlink" x="0px" y="0px"
	 width="100px" height="100px" viewBox="0 0 100 100" style="enable-background:new 0 0 100 100;" xml:space="preserve">
<path id="Diigo" d="M49.673,39.324c11.201-0.175,17.343-6.125,23.068-11.699v67.238H61.459c-0.102-2.707-0.159-5.449-0.201-8.203
	V67.846c0.076-7.114,0.191-14.232,0.217-21.216c-1.586,0.421-3.375,1.258-5.392,1.789c-6.061,1.599-14.037,0.762-18.65-1.938
	c0.015,3.314,0.037,6.655,0.063,10.007v35.16c-0.019,1.072-0.031,2.148-0.054,3.217H26.116V27.45
	C31.905,33.579,38.318,39.5,49.673,39.324z M67.353,19.716c4.009,0,7.257-3.326,7.257-7.427s-3.248-7.426-7.257-7.426
	c-4.008,0-7.258,3.324-7.258,7.426S63.345,19.716,67.353,19.716z M31.868,19.716c4.008,0,7.256-3.326,7.256-7.427
	s-3.248-7.426-7.256-7.426c-4.009,0-7.259,3.324-7.259,7.426S27.859,19.716,31.868,19.716z"/>
</svg>
