<?xml version="1.0" encoding="iso-8859-1"?>
<!-- Generator: Adobe Illustrator 15.0.0, SVG Export Plug-In . SVG Version: 6.00 Build 0)  -->
<!DOCTYPE svg PUBLIC "-//W3C//DTD SVG 1.1//EN" "http://www.w3.org/Graphics/SVG/1.1/DTD/svg11.dtd">
<svg version="1.1" id="Layer_1" xmlns="http://www.w3.org/2000/svg" xmlns:xlink="http://www.w3.org/1999/xlink" x="0px" y="0px"
	 width="100px" height="100px" viewBox="0 0 100 100" style="enable-background:new 0 0 100 100;" xml:space="preserve">
<path id="DZone_1_" d="M87.949,26.89c-3.299,0-6.055,2.296-6.832,5.389L49.873,21.923c-0.016-2.224-1.797-4.017-3.994-4.017
	c-2.205,0-3.994,1.809-3.994,4.046c0,1.058,0.404,2.021,1.064,2.743l-33,37.756c-0.391-0.14-0.807-0.221-1.244-0.221
	C6.66,62.23,5,63.912,5,65.98c0,2.073,1.66,3.752,3.705,3.752c1.451,0,2.705-0.844,3.314-2.078l29.988,7.18
	c-0.09,0.445-0.143,0.906-0.143,1.379c0,3.694,2.961,6.693,6.617,6.693c3.646,0,6.607-2.999,6.607-6.693
	c0-0.675-0.1-1.326-0.281-1.938l22.967-9.493c0.643,0.654,1.537,1.064,2.525,1.064c1.967,0,3.563-1.615,3.563-3.615
	c0-1.189-0.57-2.241-1.445-2.903l3.746-18.387c0.572,0.152,1.168,0.236,1.785,0.236c3.895,0,7.051-3.196,7.051-7.142
	C95,30.092,91.844,26.89,87.949,26.89z M48.24,25.207l14.074,17.214l-14.293,5.802l-0.877-22.437
	C47.539,25.651,47.906,25.453,48.24,25.207z M45.867,25.998l0.889,22.737l-6.529,2.65c-0.281-0.54-0.68-1.001-1.16-1.363
	l5.506-24.255C44.979,25.911,45.412,25.993,45.867,25.998z M40.693,53.277c0-0.248-0.023-0.493-0.066-0.732l6.178-2.506
	l0.766,19.548c-0.555,0.073-1.088,0.22-1.588,0.423l-6.533-13.804C40.213,55.472,40.693,54.437,40.693,53.277z M52.525,70.923
	c-1.029-0.81-2.297-1.312-3.676-1.394l-0.781-20.003l15.059-6.111l6.813,8.337L52.525,70.923z M64.043,43.043l17.15-6.958
	c0.227,0.771,0.584,1.489,1.041,2.128L70.582,51.04L64.043,43.043z M80.947,34.865L63.23,42.049L48.93,24.556
	c0.395-0.473,0.684-1.041,0.83-1.668l31.182,10.333c-0.027,0.271-0.049,0.541-0.049,0.814
	C80.893,34.313,80.916,34.591,80.947,34.865z M43.664,25.315c0.014,0.007,0.027,0.017,0.043,0.024l-5.496,24.199
	c-0.465-0.197-0.979-0.305-1.512-0.305c-2.203,0-3.994,1.813-3.994,4.043c0,0.379,0.053,0.748,0.15,1.098l-21.697,8.8
	c-0.109-0.096-0.221-0.188-0.342-0.275L43.664,25.315z M12.332,66.755c0.049-0.253,0.078-0.508,0.078-0.774
	c0-0.654-0.166-1.268-0.457-1.801l21.404-8.687c0.713,1.1,1.943,1.83,3.342,1.83c0.725,0,1.396-0.196,1.98-0.532l6.461,13.648
	c-1.314,0.777-2.338,2.008-2.869,3.48L12.332,66.755z M54.467,73.387c-0.313-0.679-0.732-1.301-1.242-1.831l17.32-19.066
	l6.598,8.071c-0.262,0.497-0.408,1.066-0.408,1.67c0,0.646,0.164,1.246,0.455,1.768L54.467,73.387z M81.553,58.854
	c-0.393-0.149-0.813-0.231-1.252-0.231c-1.023,0-1.945,0.434-2.592,1.133l-6.521-7.973L82.84,38.954
	c0.682,0.724,1.504,1.302,2.424,1.688L81.553,58.854z"/>
</svg>
