<?xml version="1.0" encoding="iso-8859-1"?>
<!-- Generator: Adobe Illustrator 15.0.0, SVG Export Plug-In . SVG Version: 6.00 Build 0)  -->
<!DOCTYPE svg PUBLIC "-//W3C//DTD SVG 1.1//EN" "http://www.w3.org/Graphics/SVG/1.1/DTD/svg11.dtd">
<svg version="1.1" id="Icons" xmlns="http://www.w3.org/2000/svg" xmlns:xlink="http://www.w3.org/1999/xlink" x="0px" y="0px"
	 width="100px" height="100px" viewBox="0 0 100 100" style="enable-background:new 0 0 100 100;" xml:space="preserve">
<path id="Ember" style="fill-rule:evenodd;clip-rule:evenodd;" d="M86.677,35.978c-1.311,4.874-6.476,7.31-6.476,7.31
	C68.432,13.381,53.041,5,53.041,5c-0.654,9.594-12.258,17.158-12.258,17.158l-8.051-4.238c1.3,6.808-2.861,13.167-2.861,13.167
	C13.196,41.978,19.613,64.38,19.613,64.38L12.5,61.148c5.293,38.331,37.646,33.674,37.646,33.674
	C96.242,94.497,86.677,35.978,86.677,35.978z M48.91,87.6C21.25,87.405,26.99,52.293,26.99,52.293
	c0.784,2.925,3.883,4.386,3.883,4.386c7.063-17.944,16.297-22.971,16.297-22.971c0.395,5.752,7.357,10.296,7.357,10.296l4.829-2.545
	c-0.781,4.086,1.717,7.899,1.717,7.899c10.003,6.533,6.155,19.976,6.155,19.976l4.267-1.938C68.32,90.393,48.91,87.6,48.91,87.6z"/>
</svg>
