<?xml version="1.0" encoding="iso-8859-1"?>
<!-- Generator: Adobe Illustrator 15.0.0, SVG Export Plug-In . SVG Version: 6.00 Build 0)  -->
<!DOCTYPE svg PUBLIC "-//W3C//DTD SVG 1.1//EN" "http://www.w3.org/Graphics/SVG/1.1/DTD/svg11.dtd">
<svg version="1.1" id="Icons" xmlns="http://www.w3.org/2000/svg" xmlns:xlink="http://www.w3.org/1999/xlink" x="0px" y="0px"
	 width="100px" height="100px" viewBox="0 0 100 100" style="enable-background:new 0 0 100 100;" xml:space="preserve">
<path id="Evernote" style="fill-rule:evenodd;clip-rule:evenodd;" d="M29.755,24.396l-14.588-0.017L33.444,5.99l0.005,14.831
	L29.755,24.396z M81.434,17.091c-1.556-2.68-9.689-5.768-13.912-5.768c-4.218,0-10.88,0-10.88,0S53.15,5,44.937,5
	c-8.218,0-7.666,3.663-7.666,6.791v12.646l-3.725,3.932h-17.2c0,0-4.846,3.205-4.846,10.133c0,6.929,2.15,31.07,16.585,33.304
	c17.08,2.646,20.005-5.292,20.005-6.246c0-4.021,0.102-10.111,0.102-10.111s5.002,9.556,12.555,9.556s11.945,4.339,11.945,8.807
	c0,4.472,0,8.268,0,8.268s-0.282,5.175-4.721,5.175c-4.446,0-9.479,0-9.479,0s-3.111-2.423-3.111-5.773s1.521-4.261,3.297-4.261
	c1.775,0,3.233,0.206,3.233,0.206v-7.048c0,0-14.304-0.093-14.304,10.86C47.607,92.187,55.087,95,61.085,95c5.993,0,9.771,0,9.771,0
	S88.5,92.731,88.5,57.875C88.5,23.016,82.989,19.773,81.434,17.091z M63.888,48.337c0,0,0.859-5.748,4.192-5.748
	s7.911,7.676,7.911,7.676S65.549,48.337,63.888,48.337z"/>
</svg>
