<?xml version="1.0" encoding="iso-8859-1"?>
<!-- Generator: Adobe Illustrator 15.0.0, SVG Export Plug-In . SVG Version: 6.00 Build 0)  -->
<!DOCTYPE svg PUBLIC "-//W3C//DTD SVG 1.1//EN" "http://www.w3.org/Graphics/SVG/1.1/DTD/svg11.dtd">
<svg version="1.1" id="Icons" xmlns="http://www.w3.org/2000/svg" xmlns:xlink="http://www.w3.org/1999/xlink" x="0px" y="0px"
	 width="100px" height="100px" viewBox="0 0 100 100" style="enable-background:new 0 0 100 100;" xml:space="preserve">
<path id="Facebook_Places" d="M79.535,27.4c-0.32-1.201-0.971-2.48-1.452-3.6C72.324,9.96,59.741,5,49.581,5
	C35.98,5,21,14.12,19,32.919v3.841c0,0.16,0.055,1.6,0.134,2.32c1.121,8.959,8.19,18.48,13.47,27.439
	c5.68,9.599,11.574,19.041,17.414,28.48c3.6-6.159,7.188-12.399,10.706-18.4c0.96-1.76,2.073-3.52,3.033-5.2
	c0.64-1.119,1.862-2.239,2.421-3.28C71.857,57.72,81,47.24,81,36.92v-4.24C81,31.561,79.614,27.641,79.535,27.4z M49.83,46.68
	c-3.998,0-8.374-1.999-10.534-7.52C38.974,38.281,39,36.52,39,36.359v-2.48c0-7.038,5.976-10.239,11.175-10.239
	c6.4,0,11.351,5.121,11.351,11.521C61.525,41.561,56.23,46.68,49.83,46.68z"/>
</svg>
