<?xml version="1.0" encoding="iso-8859-1"?>
<!-- Generator: Adobe Illustrator 15.0.0, SVG Export Plug-In . SVG Version: 6.00 Build 0)  -->
<!DOCTYPE svg PUBLIC "-//W3C//DTD SVG 1.1//EN" "http://www.w3.org/Graphics/SVG/1.1/DTD/svg11.dtd">
<svg version="1.1" id="Icons" xmlns="http://www.w3.org/2000/svg" xmlns:xlink="http://www.w3.org/1999/xlink" x="0px" y="0px"
	 width="100px" height="100px" viewBox="0 0 100 100" style="enable-background:new 0 0 100 100;" xml:space="preserve">
<path id="Feedburner" style="fill-rule:evenodd;clip-rule:evenodd;" d="M78.906,64.148c0.25-1.341,0.423-2.689,0.431-4.039
	c0.068-16.917-9.127-23.513-18.865-29.15c2.82,14.815-6.3,23.961-17.631,20.759C59.403,24.63,35.304,24.564,42.669,5
	c-11.326,8.046-22.688,30.563-22.652,46.997c0.006,4.34,0.443,8.374,1.252,12.07C13.116,67.334,8,71.962,8,77.092
	C8,86.956,26.868,95,50.002,95C73.139,95,92,86.956,92,77.092C92,72.001,86.95,67.411,78.906,64.148z M33.927,42.646
	c-3.133,14.127,5.266,24.647,13.354,24.75c9.124,0.068,14.533-8.457,17.11-19.63c4.847,3.7,7.35,8.859,7.671,14.119
	c-0.013-0.004-0.024-0.007-0.037-0.011c0.368,5.957-2.067,12.043-7.123,16.3c-0.026,0.023-0.053,0.046-0.079,0.067
	c-1.088,0.907-2.299,1.726-3.625,2.445c-0.117,0.063-0.24,0.123-0.361,0.186c-0.531,0.276-1.081,0.533-1.648,0.775
	c-0.164,0.07-0.325,0.141-0.492,0.208c-1.391,0.559-2.887,1.011-4.486,1.346c-0.225,0.046-0.453,0.085-0.681,0.127
	c-0.604,0.11-1.224,0.206-1.854,0.283c-0.248,0.029-0.493,0.063-0.746,0.088c-0.859,0.084-1.736,0.147-2.646,0.165
	c-0.635,0.013-1.264-0.013-1.887-0.055c-0.164-0.011-0.326-0.026-0.489-0.04c-0.528-0.048-1.052-0.112-1.569-0.199
	c-0.098-0.016-0.196-0.026-0.293-0.044c-0.625-0.112-1.242-0.251-1.848-0.418c-0.074-0.021-0.147-0.046-0.221-0.066
	c-0.566-0.162-1.123-0.347-1.67-0.556c-0.057-0.021-0.115-0.042-0.173-0.065c-7.505-2.949-12.96-10.257-12.668-20.413
	c-0.014,0.003-0.025,0.007-0.038,0.011C27.591,56.359,29.532,49.82,33.927,42.646z"/>
</svg>
