<?xml version="1.0" encoding="iso-8859-1"?>
<!-- Generator: Adobe Illustrator 15.0.0, SVG Export Plug-In . SVG Version: 6.00 Build 0)  -->
<!DOCTYPE svg PUBLIC "-//W3C//DTD SVG 1.1//EN" "http://www.w3.org/Graphics/SVG/1.1/DTD/svg11.dtd">
<svg version="1.1" id="Layer_1" xmlns="http://www.w3.org/2000/svg" xmlns:xlink="http://www.w3.org/1999/xlink" x="0px" y="0px"
	 width="100px" height="100px" viewBox="0 0 100 100" style="enable-background:new 0 0 100 100;" xml:space="preserve">
<path id="Folkd" style="fill-rule:evenodd;clip-rule:evenodd;" d="M62.324,31.563c-0.586,0.615-1.975,0.441-3.184,0.446
	c-0.328,1.017-0.404,2.282-0.908,3.129c2.012,1.596,5.943,1.308,7.729,3.126c3.848-1.429,0.789-4.353,3.184-6.701
	c3.641-0.451,4.453,1.88,5.455,4.021c-0.857,0.792-3.004,0.325-4.547,0.445c-0.83,0.673-1.07,1.928-1.818,2.683
	c0.826,1.867,3.084,2.328,3.641,4.464c4.674-1.206,9.496-2.279,14.547-3.123c1.324-1.382,1.023-4.359,3.184-4.915
	c3.549,0.681,4.689,3.729,5.002,7.593c-1.885,3.352-6.754,1.945-8.186-0.89c-4.709,0.731-9.215,1.667-13.641,2.678
	c-0.355,1.043,0.326,4.058-0.453,5.811c2.973,2.012,4.148-1.572,6.82-1.342c1.547,1.614,1.592,7.629-1.818,7.147
	c-1.945-0.172-2.168-2.04-2.275-4.019c-1.389,0.32-1.656-0.46-2.727-0.45c-2.084,1.231-3.125,3.482-5.455,4.469
	c0.301,3.973,4.701,1.217,6.82,3.129c-0.186,3.243-2.574,4.321-5.914,4.467c-0.211-2.689,0.697-4.831-2.271-6.254
	c-3.018,0.459-4.41,2.515-7.275,3.129c-0.045,1.384,0.557,2.132,0.908,3.125c0.799,0.547,3.748-0.68,4.549,0.894
	c-0.027,3.454-4.734,5.875-7.275,4.022c-0.203-1.986,1.229-2.364,1.818-3.576c-0.861-0.94-1.309-2.288-1.818-3.574
	c-2.822,1.099-5.352,2.487-9.094,2.683c0.012,1.05-0.783,1.313-0.457,2.678c-0.174,1.662,2.191,0.829,2.275,2.235
	c0.768,4.056-5.711,4.681-6.818,1.787c-0.092-2.767,3.324-2.092,2.271-5.809c-2.285-0.882-6.156-0.204-8.186-1.34
	c-1.203,0.453-1.229,2.067-2.271,2.681c0.205,1.289,1.609,1.398,1.365,3.128c-2.969,1.165-7.43,0.23-6.82-3.574
	c1.721-1.977,4.799-0.246,5.908-3.128c-1.789-2.112-3.748-4.06-4.543-7.147c-6.822,1.488-12.35,4.25-18.643,6.254
	c-0.596,1.502-0.625,3.558-1.818,4.468c-1.896,0.474-2.006,0.115-4.094,0c-1.801-2.747-0.826-8.681,2.729-8.935
	c1.959-0.436,1.322,1.676,2.73,1.787c6.482-1.518,12.152-3.842,18.641-5.36c-1.389-7.986,10.309-13.607-2.729-12.514
	c-1.27-3.938,1.199-6.956,3.637-6.702c4.088,0.431,0.912,5.553,4.09,7.153c2.916-1.606,4.959-4.063,8.639-4.917
	c0.264-1.45-0.307-2.078-0.453-3.127c-0.283-1.062-2.799,0.069-3.184-0.896c0-1.039,0-2.084,0-3.125
	c1.473-1.366,5.346-1.139,6.367,0.447c0.365,1.998-0.809,2.481-2.273,2.678c0.119,1.376,0.986,2.013,1.361,3.129
	c2.887-1.187,7.289-0.877,11.369-0.892c0.648-0.551,0.861-1.538,0.908-2.683c0.346-1.682-2.414-0.307-1.818-2.232
	C56.01,25.476,62.338,28.192,62.324,31.563z M65.961,51.667c2.098-1.215,1.184-5.39,1.365-8.49
	C61.725,38.6,58.053,51.858,65.961,51.667z M45.957,56.582c4.174,0.561,10.01-3.954,9.547-8.039
	c-0.445-3.942-8.201-7.497-12.73-5.366C36.938,45.933,41.355,55.964,45.957,56.582z"/>
</svg>
