<?xml version="1.0" encoding="iso-8859-1"?>
<!-- Generator: Adobe Illustrator 15.0.0, SVG Export Plug-In . SVG Version: 6.00 Build 0)  -->
<!DOCTYPE svg PUBLIC "-//W3C//DTD SVG 1.1//EN" "http://www.w3.org/Graphics/SVG/1.1/DTD/svg11.dtd">
<svg version="1.1" id="Icons" xmlns="http://www.w3.org/2000/svg" xmlns:xlink="http://www.w3.org/1999/xlink" x="0px" y="0px"
	 width="100px" height="100px" viewBox="0 0 100 100" style="enable-background:new 0 0 100 100;" xml:space="preserve">
<path id="Formspring" d="M42.271,11.97C48.135,7.485,55.898,5,64.123,5c6.006,0,11.834,1.336,16.852,3.856l0.012,0.005l0.012,0.006
	c1.295,0.585,2.105,1.875,2.105,3.256c0,0.339-0.049,0.685-0.152,1.031c-0.309,1.017-1.057,1.852-2.041,2.269
	c-0.457,0.193-0.941,0.289-1.42,0.289c-0.564,0-1.129-0.132-1.641-0.394c-3.158-1.607-6.732-2.615-10.48-2.986
	c-2.979-0.582-6.049-0.885-9.156-0.885c-7.26,0-14.236,1.618-20.256,4.632C39.195,14.613,40.625,13.233,42.271,11.97z
	 M87.533,69.928c0-1.13-0.531-2.237-1.527-2.935c-0.633-0.442-1.357-0.658-2.072-0.658c-1.137,0.002-2.254,0.531-2.953,1.522
	c-1.814,2.558-3.764,4.523-5.947,5.989c-2.559,1.712-6.607,4.352-6.637,4.377l-0.002,0.003c-1.02,0.663-1.631,1.786-1.631,2.992
	l0.008,4.767l-11.084-4.7c-0.443-0.187-0.922-0.287-1.41-0.287l-0.203,0.007c-0.832,0.048-1.672,0.07-2.504,0.07
	c-12.318-0.007-23.572-5.019-29.398-13.211l-0.039-0.047l0.035,0.047c-0.113-0.162-0.248-0.311-0.393-0.456l-0.037-0.04
	l-0.033-0.046c-2.297-3.395-3.492-7.073-3.49-10.911c0-6.829,3.781-12.989,9.791-17.405c6.018-4.423,14.283-7.146,23.389-7.146
	c6.631,0,13.037,1.454,18.539,4.214l0.18,0.086l0.008,0.002c2.75,1.404,4.959,3.199,6.49,5.238c1.533,2.034,2.385,4.319,2.385,6.661
	c-0.004,3.795-2.182,7.402-6.004,10.157c-4.24,3.059-9.91,4.724-15.973,4.724c-1.531,0-3.063-0.111-4.549-0.325l-0.051-0.01h-0.002
	c-4.248-0.642-8.305-2.032-11.756-4.032l-0.074-0.036l-0.018-0.009c-6.732-3.975-10.674-9.894-10.674-16.279
	c0-0.496,0.029-0.988,0.076-1.475c-2.783,1.982-5.035,4.345-6.592,6.948c1.713,6.776,6.563,12.943,13.74,17.113l0.268,0.133
	l0.012,0.004c4.148,2.341,8.977,3.979,13.986,4.733l0.088,0.012h0.004c1.816,0.26,3.682,0.394,5.541,0.394
	c7.6,0,14.781-2.174,20.207-6.095c5.826-4.207,8.977-9.861,8.982-15.957c0.002-7.398-4.813-14.277-13.008-18.384l-0.188-0.09
	l-0.006-0.003c-6.445-3.199-13.916-4.895-21.613-4.895c-10.627-0.002-20.652,3.202-28.213,8.984
	C15.301,39.71,11.002,47.77,11,56.413c0,5.427,1.76,10.774,5.102,15.483c0.139,0.189,0.303,0.369,0.482,0.541l0.043,0.035
	l0.027,0.042c7.178,9.682,20.494,15.734,34.916,15.729c0.637,0,1.279-0.011,1.924-0.034l0.127-0.005l15.324,6.515
	C69.4,94.907,69.881,95,70.363,95c0.697,0,1.391-0.197,1.984-0.591c1.01-0.664,1.621-1.789,1.621-2.988l0.008-8.262l0.256-0.172
	c1.418-0.93,3.365-2.211,4.832-3.192c2.871-1.923,5.498-4.542,7.809-7.805C87.322,71.361,87.533,70.64,87.533,69.928z
	 M58.258,54.257l-0.086,0.562l0.09-0.562l0.021,0.003c1.596,0.232,3.238,0.348,4.881,0.348c4.268,0,8.379-0.794,12.023-2.241
	c0.875-1.402,1.338-2.868,1.34-4.34c0-1.281-0.367-2.558-1.033-3.795c-3.396,2.032-7.766,3.202-12.33,3.202
	c-1.299,0-2.594-0.089-3.842-0.271C50.848,45.9,44.1,41.454,41.305,35.653c-2.41,0.617-4.684,1.447-6.777,2.456
	C38.145,46.229,46.996,52.582,58.258,54.257z M89,34.994c0-6.538-4.197-12.634-11.363-16.299l-0.232-0.107l-0.002-0.004
	c-5.701-2.858-12.314-4.372-19.133-4.372c-9.348-0.002-18.162,2.817-24.813,7.908c-2.246,1.715-4.158,3.623-5.721,5.67
	c6.824-3.609,14.803-5.596,23.146-5.691c2.377-0.471,4.854-0.717,7.387-0.717c5.76,0,11.311,1.277,16.064,3.696l0.188,0.089
	l0.01,0.006c3.23,1.693,5.549,4.042,6.613,6.67c3.027,2.698,5.254,5.889,6.525,9.364C88.533,39.218,89,37.132,89,34.994z"/>
</svg>
