<?xml version="1.0" encoding="iso-8859-1"?>
<!-- Generator: Adobe Illustrator 15.0.0, SVG Export Plug-In . SVG Version: 6.00 Build 0)  -->
<!DOCTYPE svg PUBLIC "-//W3C//DTD SVG 1.1//EN" "http://www.w3.org/Graphics/SVG/1.1/DTD/svg11.dtd">
<svg version="1.1" id="Icons" xmlns="http://www.w3.org/2000/svg" xmlns:xlink="http://www.w3.org/1999/xlink" x="0px" y="0px"
	 width="100px" height="100px" viewBox="0 0 100 100" style="enable-background:new 0 0 100 100;" xml:space="preserve">
<path id="Friendster" d="M41.849,20.577c6.207,5.292,8.569,14.571,6.207,22.327c-2.661,6.998-14.526,7.018-17.007-0.203
	c-2.545-7.234-1.446-16.431,3.994-22.108C36.939,18.682,40.018,18.348,41.849,20.577z M58.073,13.574
	c-6.392,2.949-6.741,11.591-6.489,17.756c0.481,5.645,2.162,14.12,9.251,14.353c8.139-3.266,7.956-13.801,6.824-21.087
	C66.959,19.705,64.098,12.701,58.073,13.574z M89.574,24.109c-3.462-0.887-8.604-1.106-10.168,2.931
	c-5.175,10.421-4.707,23.183-12.065,32.664c-5.939,7.201-15.474,12.262-24.959,10.669c-5.042-0.804-9.835-3.701-12.48-8.156
	c-5.348-8.855-5.581-20.425-11.88-28.64C2.467,26.92,4.941,46.141,5.453,49.352c0.024,0.146,0.049,0.292,0.074,0.438
	c0,0.006,0.003,0.021,0.003,0.021l0,0c0.738,4.641,0.984,9.42,3.221,13.645c8.785,18.125,31.484,26.8,50.403,21.508
	C79.971,79.017,94.4,57.728,95,36.371C94.883,31.932,94.183,26.102,89.574,24.109z"/>
</svg>
