<?xml version="1.0" encoding="iso-8859-1"?>
<!-- Generator: Adobe Illustrator 15.0.0, SVG Export Plug-In . SVG Version: 6.00 Build 0)  -->
<!DOCTYPE svg PUBLIC "-//W3C//DTD SVG 1.1//EN" "http://www.w3.org/Graphics/SVG/1.1/DTD/svg11.dtd">
<svg version="1.1" id="Layer_1" xmlns="http://www.w3.org/2000/svg" xmlns:xlink="http://www.w3.org/1999/xlink" x="0px" y="0px"
	 width="100px" height="100px" viewBox="0 0 100 100" style="enable-background:new 0 0 100 100;" xml:space="preserve">
<path id="Goodreads" d="M49.289,68.463c9.74-0.081,16.666-4.953,20.775-14.614h0.215v14.735c0,1.098-0.072,2.801-0.215,5.115
	c-0.293,2.395-1.076,4.973-2.346,7.733c-1.273,2.598-3.328,4.812-6.16,6.637c-2.801,1.989-6.709,3.024-11.727,3.106
	c-4.834,0-8.922-1.259-12.268-3.775c-3.42-2.477-5.418-6.496-5.998-12.057h-4.252c0.436,7.225,2.742,12.381,6.922,15.467
	c4.07,2.962,9.234,4.445,15.488,4.445c6.178,0,10.996-1.157,14.449-3.472c3.416-2.232,5.869-5.014,7.361-8.343
	c1.49-3.328,2.381-6.495,2.67-9.498c0.221-3.005,0.328-5.156,0.328-6.455V6.717h-4.254v13.396h-0.215
	c-1.637-4.911-4.344-8.625-8.127-11.143c-3.816-2.476-8.033-3.715-12.648-3.715c-8.037,0.163-14.143,3.268-18.322,9.317
	c-4.291,6.007-6.434,13.417-6.434,22.226c0,9.053,2.035,16.542,6.105,22.469C34.748,65.317,40.963,68.382,49.289,68.463z
	 M33.912,17.861c3.342-5.481,8.467-8.322,15.377-8.525c7.088,0.204,12.338,2.964,15.758,8.282
	c3.416,5.319,5.125,11.712,5.125,19.182c0,7.47-1.709,13.822-5.125,19.059c-3.42,5.563-8.67,8.403-15.758,8.525
	C42.6,64.261,37.508,61.5,34.02,56.102c-3.527-5.237-5.289-11.671-5.289-19.303C28.73,29.654,30.457,23.341,33.912,17.861z"/>
</svg>
