<?xml version="1.0" encoding="iso-8859-1"?>
<!-- Generator: Adobe Illustrator 15.0.0, SVG Export Plug-In . SVG Version: 6.00 Build 0)  -->
<!DOCTYPE svg PUBLIC "-//W3C//DTD SVG 1.1//EN" "http://www.w3.org/Graphics/SVG/1.1/DTD/svg11.dtd">
<svg version="1.1" id="Icons" xmlns="http://www.w3.org/2000/svg" xmlns:xlink="http://www.w3.org/1999/xlink" x="0px" y="0px"
	 width="100px" height="100px" viewBox="0 0 100 100" style="enable-background:new 0 0 100 100;" xml:space="preserve">
<path id="Google" d="M79.5,5H55.145c-6.383,0-14.422,0.942-21.158,6.49c-5.09,4.374-7.566,10.392-7.566,15.828
	c0,9.211,7.094,18.546,19.625,18.546c1.182,0,2.477-0.12,3.787-0.235c-0.592,1.413-1.189,2.594-1.189,4.605
	c0,3.663,1.893,5.903,3.547,8.03c-5.314,0.352-15.248,0.942-22.582,5.428c-6.975,4.142-9.107,10.16-9.107,14.414
	C20.5,86.846,28.779,95,45.924,95c20.336,0,31.098-11.22,31.098-22.33c0-8.142-4.73-12.164-9.932-16.534l-4.258-3.305
	c-1.295-1.065-3.068-2.479-3.068-5.08c0-2.597,1.773-4.254,3.307-5.789c4.963-3.896,9.932-8.03,9.932-16.77
	c0-8.979-5.68-13.704-8.396-15.947h7.334L79.5,5z M69.104,77.279c0,7.323-6.033,12.753-17.385,12.753
	c-12.648,0-20.809-6.024-20.809-14.405c0-8.392,7.568-11.218,10.166-12.164c4.969-1.656,11.352-1.891,12.414-1.891
	c1.184,0,1.775,0,2.725,0.116C65.203,68.065,69.104,71.257,69.104,77.279z M59.643,39.249c-1.893,1.886-5.088,3.305-8.045,3.305
	c-10.164,0-14.773-13.113-14.773-21.023c0-3.072,0.592-6.258,2.598-8.74c1.893-2.362,5.201-3.899,8.277-3.899
	c9.811,0,14.9,13.229,14.9,21.73C62.6,32.752,62.359,36.528,59.643,39.249z"/>
</svg>
