<?xml version="1.0" encoding="iso-8859-1"?>
<!-- Generator: Adobe Illustrator 15.0.0, SVG Export Plug-In . SVG Version: 6.00 Build 0)  -->
<!DOCTYPE svg PUBLIC "-//W3C//DTD SVG 1.1//EN" "http://www.w3.org/Graphics/SVG/1.1/DTD/svg11.dtd">
<svg version="1.1" id="Icons" xmlns="http://www.w3.org/2000/svg" xmlns:xlink="http://www.w3.org/1999/xlink" x="0px" y="0px"
	 width="100px" height="100px" viewBox="0 0 100 100" style="enable-background:new 0 0 100 100;" xml:space="preserve">
<path id="Google_Talk" style="fill-rule:evenodd;clip-rule:evenodd;" d="M94.609,41.276c0-19.814-20.146-35.87-44.992-35.87
	c-24.862,0-45.008,16.056-45.008,35.87c0,17.21,15.216,31.59,35.519,35.063c-0.468,5.742-1.658,12.286-4.163,19.066
	c9.931-2.645,18.614-11.517,24.624-19.339C80.132,72.16,94.609,58.064,94.609,41.276z M68.911,63.368
	c-0.601,0.114-1.207,0.208-1.822,0.272c-0.648,0.063-1.304,0.107-1.968,0.107c-0.578,0-1.146-0.046-1.711-0.093
	c7.054-5.077,11.648-13.198,11.648-22.378c0-10.083-5.533-18.888-13.792-23.78c1.253-0.243,2.536-0.39,3.854-0.39
	c11.948,0,21.631,10.443,21.631,23.326C86.752,51.911,79.048,61.433,68.911,63.368z"/>
</svg>
