<?xml version="1.0" encoding="iso-8859-1"?>
<!-- Generator: Adobe Illustrator 15.0.0, SVG Export Plug-In . SVG Version: 6.00 Build 0)  -->
<!DOCTYPE svg PUBLIC "-//W3C//DTD SVG 1.1//EN" "http://www.w3.org/Graphics/SVG/1.1/DTD/svg11.dtd">
<svg version="1.1" id="Icons" xmlns="http://www.w3.org/2000/svg" xmlns:xlink="http://www.w3.org/1999/xlink" x="0px" y="0px"
	 width="100px" height="100px" viewBox="0 0 100 100" style="enable-background:new 0 0 100 100;" xml:space="preserve">
<path id="Gowalla__x28_alt_x29_" style="fill-rule:evenodd;clip-rule:evenodd;" d="M29.132,5.234C29.75,5.153,30.362,5.073,30.974,5
	c2.837,0.348,4.289,2.568,4.523,6.376c0.378,6.108-1.978,12.98-3.084,17.276c10.348,2.296,18.698,7.5,23.93,16.775
	c2.375,4.215,4.484,9.086,4.731,15.235c0.033,0.935-0.391,2.315-0.195,3.137c0.215,0.93,1.601,2.042,2.355,2.804
	c2.278,2.32,5.5,5.372,8.259,6.342c5.024,1.767,12.196-1.319,17.005-2.329c3.221-0.675,5.356-0.354,6.307,2.148
	c0.065,0.536,0.13,1.07,0.195,1.606c-0.951,3.586-4.38,5.727-7.869,7.527c-10.054,5.179-26.559,7.809-39.979,7.648
	c-2.524,2.194-6.006,3.626-10.106,4.556c-2.03,0.261-4.068,0.522-6.098,0.783c-5.063,0.193-10.947,0.488-13.823-2.368
	c-1.315-1.306-2.298-3.755-1.758-6.144c0.833-3.706,5.35-5.949,9.801-7.039c-0.156-1.245-1.093-2.308-1.588-3.641
	c-1.926-5.098-1.347-11.688,0.404-15.603c-1.1-0.408-2.447-0.488-3.56-0.877c-0.423,1.211-0.312,2.229-0.924,3.078
	c-2.459,3.418-9.027,1.928-8.636-3.479c0.241-3.259,4.966-5.868,7.589-7.487c1.398-0.863,3.332-1.888,4.985-2.863
	c1.62-0.958,3.515-2.27,3.879-3.607c0.403-1.466-0.26-3.767-0.723-4.797c-0.697,0.066-0.989,0.896-1.419,1.371
	c-1.36,1.5-2.942,2.985-4.64,4.444c-2.187,1.872-4.621,3.98-7.484,4.81c-3.605,1.044-6.599-0.455-7.823-3.88
	C5.156,46.169,5.078,45.539,5,44.91c1.484-7.634,7.699-11.488,14.467-14.892c-2.688-3.033-8.031-7.775-8.668-14.434
	c-0.273-2.945,0.859-5.62,3.052-6.905c3.931-2.315,7.088,1.633,9.482,3.372C24.492,9.154,26.041,6.572,29.132,5.234z M49.04,39.846
	c-4.205-4.202-9.983-7.479-16.752-8.657c-1.328-0.236-2.33-0.336-2.57-1.004c-0.163-0.448,0.234-1.754,0.527-2.737
	c1.425-4.737,2.661-8.39,2.928-13.85c0.15-3.026-0.461-7.448-3.598-5.901c-2.545,1.25-3.808,4.321-4.667,6.669
	c2.46,2.195,6.912,12.934,0.131,12.867c-4.862-0.053-3.684-9.427-2.682-12.539c-1.119-1.011-1.751-1.981-2.942-2.884
	c-0.82-0.623-2.134-1.927-4.178-1.238c-1.25,0.416-1.972,2.148-2.095,2.931c-0.183,1.192,0.058,2.55,0.286,3.521
	c0.99,4.254,4.731,8.617,7.211,10.772c0.872,0.763,2.955,1.323,2.903,2.589c-0.027,1.011-2.786,1.666-4.179,2.315
	c-1.887,0.882-3.208,1.786-4.165,2.456c-2.655,1.867-5.154,3.82-6.599,6.182c-0.599,0.99-1.51,2.73-1.185,4.442
	c0.391,2.067,2.226,3.185,4.641,2.663c2.545-0.542,5.46-2.944,7.999-5.319c1.21-1.13,2.017-1.8,3.345-3.245
	c0.95-1.023,2.187-3.319,3.358-3.245c1.178,0.081,2.447,3.345,2.708,4.542c0.801,3.547-0.345,5.862-1.719,7.181
	c-1.933,1.853-5.017,3.064-8.049,4.883c-1.933,1.159-6.515,3.741-6.45,6.156c0.065,2.784,3.696,2.897,4.445,1.058
	c0.488-1.211-0.657-3.199,0.254-3.881c0.904-0.682,2.733,0.255,3.501,0.434c1.51,0.355,2.747,0.656,3.554,0.736
	c1.737-2,3.462-5.941,7.055-5.941c3.117,0,5.031,5.193,2.759,7.339c-2.154,2.055-5.545,1.279-8.344,1.225
	c-2.72,4.296-2.238,14.071,1.36,18.332c3.118-0.286,6.014-0.274,8.65,0.074c-5.891-8.176-2.213-20.655,7.555-21.993
	c8.682-1.197,14.025,4.671,14.761,5.379C58.092,51.962,54.383,45.198,49.04,39.846z M25.318,24.825
	c1.452-0.081,1.139-2.249,0.709-3.647c-0.456-1.493-1.25-2.575-1.731-3.626c-0.027-0.086-0.046-0.167-0.169-0.126
	C23.724,18.963,23.216,24.952,25.318,24.825z M27.778,58.125c1.888,0.026,4.438,0.274,5.636-1.023
	c0.215-1.139-0.312-2.27-0.917-2.837C30.03,54.339,28.748,56.418,27.778,58.125z M44.322,59.11
	c-8.246,1.371-10.849,12.05-5.838,18.373c1.035,1.305,3.736,2.79,3.631,3.827c-0.123,1.278-1.373,0.856-2.375,0.603
	c-3.118-0.796-6.665-1.266-9.905-0.951c3.404,4.022,9.56,5.861,16.166,6.216c2.265-1.853,3.163-5.968,1.314-9.346
	c-0.709-1.292-1.861-1.793-1.491-2.771c0.397-1.037,1.959-0.596,3.228-0.71c5.512-0.508,8.09-4.964,9.235-9.334
	C54.513,61.699,50.908,58.011,44.322,59.11z M49.333,76.679c2.037,3.078,1.126,7.754,0.052,9.916
	c-0.007,0.019-0.365,0.622-0.072,0.603c13.973-0.503,31.48-2.904,40.454-9.636c1.185-0.883,3.28-2.649,2.825-4.061
	c-0.638-1.959-5.955,0.208-7.692,0.689c-2.538,0.696-6.053,1.397-8.883,1.578c-7.823,0.503-11.187-4.675-15.457-8.671
	c-0.189-0.215-0.378-0.401-0.45-0.093C58.503,71.815,55.73,75.695,49.333,76.679z M28.045,82.821
	c-0.833-0.856-0.898-1.727-2.044-1.372c-3.774,1.186-8.506,2.776-8.435,6.417c0.04,2.422,1.979,3.686,3.385,4.155
	c2.72,0.916,7.061,0.682,11.128,0.348c4.283-0.348,8.545-1.399,11.012-3.038C37.137,88.555,31.787,86.681,28.045,82.821z"/>
</svg>
