<?xml version="1.0" encoding="iso-8859-1"?>
<!-- Generator: Adobe Illustrator 15.0.0, SVG Export Plug-In . SVG Version: 6.00 Build 0)  -->
<!DOCTYPE svg PUBLIC "-//W3C//DTD SVG 1.1//EN" "http://www.w3.org/Graphics/SVG/1.1/DTD/svg11.dtd">
<svg version="1.1" id="Icons" xmlns="http://www.w3.org/2000/svg" xmlns:xlink="http://www.w3.org/1999/xlink" x="0px" y="0px"
	 width="100px" height="100px" viewBox="0 0 100 100" style="enable-background:new 0 0 100 100;" xml:space="preserve">
<path id="Gowalla" d="M59.285,45.533c-0.501,5.566,1,13.125-0.756,17.423c-25.741,3.03-22.26-52.151,0-47.73
	c-3.82,17.765,16.934,16.887,17.417,4.544c0.355-9.258-10.095-13.557-15.904-14.394c-17.384-2.506-39.188,7.482-41.645,30.307
	c-2.44,22.666,6.48,29.812,23.471,37.882c-8.675,24.838,23.806,26.237,34.831,13.639c8.263-9.438,3.303-26.539,5.301-41.671
	C74.429,45.533,66.855,45.533,59.285,45.533z M52.468,82.66c-7.046-4.1-0.374-13.048,5.302-13.639c0.88-0.123,1.349,0.17,1.516,0.76
	C59.947,77.008,57.94,81.568,52.468,82.66z"/>
</svg>
