<?xml version="1.0" encoding="iso-8859-1"?>
<!-- Generator: Adobe Illustrator 15.0.0, SVG Export Plug-In . SVG Version: 6.00 Build 0)  -->
<!DOCTYPE svg PUBLIC "-//W3C//DTD SVG 1.1//EN" "http://www.w3.org/Graphics/SVG/1.1/DTD/svg11.dtd">
<svg version="1.1" id="Icons" xmlns="http://www.w3.org/2000/svg" xmlns:xlink="http://www.w3.org/1999/xlink" x="0px" y="0px"
	 width="100px" height="100px" viewBox="0 0 100 100" style="enable-background:new 0 0 100 100;" xml:space="preserve">
<path id="Grooveshark" style="fill-rule:evenodd;clip-rule:evenodd;" d="M50,5C25.148,5,5,25.148,5,50s20.148,45,45,45
	s45-20.148,45-45S74.852,5,50,5z M74.234,63.846c-3.463,0-6.926-6.92-6.926-6.92s-4.92-17.316-27.69-20.772
	C41.622,67.302,30.1,63.56,25.764,63.846c-4.326,0.285-6.836-5.996-6.836-13.846c0-17.158,13.914-31.071,31.072-31.071
	c17.16,0,30.66,13.913,31.071,31.071C81.155,53.463,77.691,63.846,74.234,63.846z"/>
</svg>
