<?xml version="1.0" encoding="iso-8859-1"?>
<!-- Generator: Adobe Illustrator 15.0.0, SVG Export Plug-In . SVG Version: 6.00 Build 0)  -->
<!DOCTYPE svg PUBLIC "-//W3C//DTD SVG 1.1//EN" "http://www.w3.org/Graphics/SVG/1.1/DTD/svg11.dtd">
<svg version="1.1" id="Icons" xmlns="http://www.w3.org/2000/svg" xmlns:xlink="http://www.w3.org/1999/xlink" x="0px" y="0px"
	 width="100px" height="100px" viewBox="0 0 100 100" style="enable-background:new 0 0 100 100;" xml:space="preserve">
<path id="ICQ" style="fill-rule:evenodd;clip-rule:evenodd;" d="M93.239,54.572l-0.648-1.018c-1.035-1.522-2.065-3.043-3.62-4.059
	c-1.293-0.89-2.846-1.522-4.264-2.158c4.006-1.904,6.747-4.567,8.042-7.993C93.654,36.55,92,34.27,92,31.986v-0.253
	c0-2.542-3.515-4.189-6.747-5.078c-1.945-0.38-4.089-0.38-6.027-0.257l-4.247,0.89l1.44-3.17c1.29-4.063,0.912-7.994-1.286-11.677
	l-0.386-0.63c-1.941-3.176-4.784-5.078-8.665-6.092c-4.006-1.017-7.417-0.637-11.037,1.267C51.419,8.893,48,11.812,48,15.614v0.253
	l-0.457,0.89l-0.682-0.89l-1.377-2.28c-2.07-3.174-4.695-5.078-7.93-5.968c-2.846-0.633-5.188-0.379-7.646,0.89
	c-2.712,1.647-4.278,4.192-4.926,7.741c-0.648,3.68-0.002,7.235,1.938,10.784l0.899,1.273l-3.102-1.02
	c-3.881-0.89-7.5-0.38-11.119,1.523c-3.753,1.902-6.079,4.569-7.633,8.248c-1.422,3.553-1.29,6.975,0.519,10.151
	c0.777,1.396,1.94,2.538,2.972,3.301c1.554,1.521,3.494,2.41,5.821,2.79l0.902,0.253l-1.936,1.654
	c-1.813,1.525-2.844,3.426-3.491,5.328c-0.645,2.283-0.387,4.568,0.905,6.729c0.648,1.013,1.293,1.894,2.328,2.537
	c1.035,0.882,2.327,1.519,3.877,1.648c2.846,0.637,5.821,0.637,9.05-0.383l-2.33,3.809l-0.641,1.649
	c-1.295,4.054-0.91,7.609,1.031,11.288c0.906,1.403,1.94,2.669,2.975,3.81c1.551,1.396,3.487,2.285,5.819,2.922
	c3.872,1.011,7.753,0.88,11.507-1.02c3.62-1.902,5.943-4.952,7.11-8.754l0.125-0.758c2.459,2.659,4.786,4.437,7.375,5.073
	c2.584,0.759,5.169,0.636,7.497-0.89c2.198-1.271,3.749-3.426,4.524-6.093c0.645-2.79,0.645-5.579,0-8.745
	c1.29,0.881,2.586,1.517,4.135,1.894c4.135,1.272,7.759,1.141,11.378-0.76c3.491-1.9,5.819-4.952,6.981-8.883
	C95.437,61.801,95.179,58.123,93.239,54.572z M74.492,33.381l1.549-0.637c2.332-1.011,4.526-1.268,6.858-1.011
	c2.19,0.253,3.749,1.264,4.521,2.79l0.516,1.646l-0.258,1.272c-0.903,2.284-2.846,4.06-6.075,5.455
	c-1.293,0.631-2.713,0.888-4.264,1.137l-15.904,1.909l-0.262-0.89l-0.258-0.383l0.52-0.637L74.492,33.381z M52.509,17.392
	c0.646-2.537,2.459-4.44,4.786-5.71c2.328-1.269,4.913-1.525,7.368-0.636c2.719,0.636,4.655,2.031,5.823,4.188
	c0.645,1.27,1.03,2.793,1.03,4.442l-0.385,2.789c-0.516,1.396-1.164,2.667-1.938,3.81L57.556,40.232
	c-1.162-0.888-2.455-1.524-3.752-2.157l-1.295-14.337l-0.125-5.078L52.509,17.392z M30.408,17.771
	c0.124-2.283,1.026-3.806,2.581-4.693c0.777-0.636,1.94-0.636,2.972-0.126c2.33,0.636,4.271,2.283,5.817,5.456
	c0.648,1.27,1.293,2.538,1.555,4.059l2.584,14.977l-1.936,0.633L32.47,25.766l-0.645-1.268
	C30.79,22.213,30.146,20.056,30.408,17.771z M11.398,44.671c-1.033-1.9-1.033-3.802-0.256-5.706
	c0.904-2.415,2.584-4.315,5.036-5.331c2.332-1.27,4.655-1.647,7.243-1.017l3.491,1.396l11.378,8.121
	c-1.034,1.272-1.682,2.536-2.072,3.809l-18.618,2.283l-1.29-0.253C13.984,47.591,12.43,46.58,11.398,44.671z M48,82.105
	l-0.457,1.272c-0.906,2.283-2.622,4.186-4.948,5.196c-2.329,1.272-4.873,1.525-7.194,0.896c-2.593-0.637-4.57-2.16-5.605-4.192
	c-0.643-1.264-1.177-2.79-1.177-4.315l0.627-2.913c0.262-1.272,0.908-2.543,1.941-3.556l10.856-12.693
	c1.293,0.637,2.912,1.272,4.337,1.402C46.635,67.512,48,72.088,48,77.03V82.105z M43.071,56.734
	c-1.68-1.525-2.581-3.686-2.581-5.969c0-2.285,0.901-4.186,2.581-5.965c1.554-1.394,3.623-2.283,6.079-2.283
	c2.328,0,4.526,0.89,5.952,2.283c1.803,1.779,2.584,3.68,2.584,5.965c0,2.283-0.781,4.443-2.584,5.969
	c-1.684,1.649-3.624,2.53-5.952,2.53C46.694,59.265,44.625,58.384,43.071,56.734z M66.995,78.933
	c-0.258,2.29-1.035,3.939-2.59,4.575c-0.901,0.628-1.936,0.628-2.971,0.507c-2.456-0.637-4.397-2.538-5.817-5.588l-1.555-4.186
	l-1.936-11.038l2.194-0.766l1.684-0.881l5.431,5.449l3.362,4.063l0.645,1.266C66.604,74.494,67.253,76.526,66.995,78.933z
	 M89.232,64.086c-0.648,2.544-2.199,4.445-4.4,5.456c-2.323,1.272-4.655,1.526-7.236,0.637c-1.555-0.376-2.588-1.02-3.491-2.03
	L60.528,57.111l0.906-1.902l0.39-1.527l14.608-1.27l5.17-0.123l1.297,0.123c1.933,0.637,3.749,1.779,4.778,3.68
	c1.293,1.402,1.941,3.303,1.941,5.465L89.232,64.086z"/>
</svg>
