<?xml version="1.0" encoding="iso-8859-1"?>
<!-- Generator: Adobe Illustrator 15.0.0, SVG Export Plug-In . SVG Version: 6.00 Build 0)  -->
<!DOCTYPE svg PUBLIC "-//W3C//DTD SVG 1.1//EN" "http://www.w3.org/Graphics/SVG/1.1/DTD/svg11.dtd">
<svg version="1.1" id="Layer_1" xmlns="http://www.w3.org/2000/svg" xmlns:xlink="http://www.w3.org/1999/xlink" x="0px" y="0px"
	 width="100px" height="100px" viewBox="0 0 100 100" style="enable-background:new 0 0 100 100;" xml:space="preserve">
<path id="Identi.ca" d="M5.002,47.56C4.978,69.674,23.332,87.585,46.01,87.572c6.486-0.005,12.623-1.494,18.078-4.111L95.002,92.5
	L84.914,60.33c1.402-4.029,2.191-8.334,2.199-12.82C87.133,25.396,68.777,7.485,46.099,7.5C23.43,7.516,5.029,25.446,5.002,47.56z
	 M73.908,47.517c-0.006,3.387-0.672,6.614-1.842,9.606l5.199,14.513l0,0l0.008,0.02l0.459,1.292
	c0.006-0.006,0.012-0.016,0.018-0.023l1.793,4.744l-6.559-1.635l0,0l-14.076-4.439c-3.859,1.968-8.236,3.098-12.888,3.102
	c-15.377,0.008-27.83-12.141-27.813-27.142s12.5-27.167,27.881-27.178C61.473,20.365,73.925,32.516,73.908,47.517z"/>
</svg>
