<?xml version="1.0" encoding="iso-8859-1"?>
<!-- Generator: Adobe Illustrator 15.0.0, SVG Export Plug-In . SVG Version: 6.00 Build 0)  -->
<!DOCTYPE svg PUBLIC "-//W3C//DTD SVG 1.1//EN" "http://www.w3.org/Graphics/SVG/1.1/DTD/svg11.dtd">
<svg version="1.1" id="Layer_1" xmlns="http://www.w3.org/2000/svg" xmlns:xlink="http://www.w3.org/1999/xlink" x="0px" y="0px"
	 width="100px" height="100px" viewBox="0 0 100 100" style="enable-background:new 0 0 100 100;" xml:space="preserve">
<path id="Instapaper" d="M69,92.475c-5.5-0.396-9.066-1.219-10.693-2.477c-1.627-1.252-2.441-4.504-2.441-9.742v-60.51
	c0-5.004,0.814-8.224,2.441-9.664S63.5,7.789,69,7.523V5H29v2.523c5.5,0.266,9.064,1.12,10.695,2.559
	c1.628,1.439,2.441,4.66,2.441,9.664v60.51c0,5.238-0.813,8.49-2.441,9.742C38.064,91.256,34.5,92.078,29,92.475V95h40V92.475z"/>
</svg>
