<?xml version="1.0" encoding="iso-8859-1"?>
<!-- Generator: Adobe Illustrator 15.0.0, SVG Export Plug-In . SVG Version: 6.00 Build 0)  -->
<!DOCTYPE svg PUBLIC "-//W3C//DTD SVG 1.1//EN" "http://www.w3.org/Graphics/SVG/1.1/DTD/svg11.dtd">
<svg version="1.1" id="Layer_1" xmlns="http://www.w3.org/2000/svg" xmlns:xlink="http://www.w3.org/1999/xlink" x="0px" y="0px"
	 width="100px" height="100px" viewBox="0 0 100 100" style="enable-background:new 0 0 100 100;" xml:space="preserve">
<path id="Kik" d="M12.502,85.781V14.218C12.502,9.125,16.131,5,20.615,5c4.48,0,8.111,4.125,8.111,9.218v40.27l20.279-21.833
	c2.348-2.548,4.269-4.125,7.149-4.125c4.376,0,7.151,4.003,7.151,8.249c0,3.154-1.493,5.581-3.734,8.005L46.764,57.278
	l15.264,23.409c1.388,2.184,2.028,3.882,2.028,5.943c0,4.973-3.524,8.369-7.58,8.369c-3.201,0-5.122-1.213-7.044-4.245
	L35.236,68.559l-6.51,6.672v10.551c0,5.096-3.631,9.219-8.111,9.219C16.131,95,12.502,90.877,12.502,85.781z M77.754,74.891
	c5.384,0,9.748-4.389,9.748-9.802s-4.364-9.803-9.748-9.803c-5.385,0-9.749,4.39-9.749,9.803S72.369,74.891,77.754,74.891z"/>
</svg>
