<?xml version="1.0" encoding="iso-8859-1"?>
<!-- Generator: Adobe Illustrator 15.0.0, SVG Export Plug-In . SVG Version: 6.00 Build 0)  -->
<!DOCTYPE svg PUBLIC "-//W3C//DTD SVG 1.1//EN" "http://www.w3.org/Graphics/SVG/1.1/DTD/svg11.dtd">
<svg version="1.1" id="Layer_1" xmlns="http://www.w3.org/2000/svg" xmlns:xlink="http://www.w3.org/1999/xlink" x="0px" y="0px"
	 width="100px" height="100px" viewBox="0 0 100 100" style="enable-background:new 0 0 100 100;" xml:space="preserve">
<path id="Krop" d="M39.813,67.339c0.42,1.939-1.572,3.994-2.967,4.296c-0.621,0.134-1.076-0.092-1.16-0.479s0.314-0.799,0.213-1.265
	c-0.303-1.396-6.412-5.999-17.896-14.798c-0.747,11.932-0.817,18.36-0.96,19.203c-0.23,1.188-1.431,2.014-2.826,2.316
	c-1.241,0.269-2.186-0.34-2.453-1.58c-0.404-1.861,0.35-16.394,2.54-43.414c-0.085-0.387-0.229-0.681-0.245-0.758
	c-0.705-3.257,0.863-5.384,2.958-5.836c1.318-0.285,3.348,0.088,3.649,1.483c0.286,1.319-0.864,8.387-1.952,21.368
	c4.534-7.557,11.15-16.376,19.358-26.839c1.207-1.559,2.158-2.415,3.088-2.617c0.854-0.185,1.42,0.181,1.637,1.188
	c0.168,0.775-0.207,1.669-1.07,2.181c-4.561,5.938-11.053,15.705-19.853,29.057C33.632,58.285,39.327,65.091,39.813,67.339z
	 M87.044,42.507c1.895,8.764-1.693,18.064-6.502,19.104c-1.861,0.403-3.957-0.28-4.912-1.697
	c-0.156,10.912,0.033,17.042,0.352,18.515c0.184,0.854,0.934,0.936,1,1.244c0.184,0.854-0.533,1.658-1.311,1.826
	c-1.859,0.402-3.113-0.138-3.467-1.767c-0.279-1.292-0.902-11.411-0.082-29.788c-0.98,1.331-2.119,2.26-3.406,2.779
	c-0.521,8.475-3.275,13.373-7.773,14.346c-3.006,0.651-5.584-0.709-6.703-3.935c-1.299,2.889-2.629,4.413-4.783,4.879
	c-2.869,0.621-4.994-0.949-5.666-4.051c-0.705-3.257-0.508-7.604,0.461-13.251l-2.227-0.169c-0.963,7.19-1.99,11.066-3.619,11.419
	c-0.543,0.118-1.092-0.171-1.26-0.944c-0.117-0.544,1.385-4.849,1.576-12.601c-0.973-0.359-1.537-0.724-1.688-1.422
	c-0.318-1.474,1.244-4.003,3.57-4.506c1.086-0.234,2.09,0.278,2.291,1.209c0.102,0.465,0.113,1.273,0.064,2.177l2.729,0.222
	c0.236-0.781,0.662-1.442,1.242-2.136c0.432-0.256,0.803-0.417,0.957-0.45c1.164-0.251,2.934,0.422,3.152,1.429
	c0.168,0.775-0.225,1.592-1.127,2.679c-2.125,6.306-2.637,11.449-1.848,15.094c0.285,1.319,0.996,1.977,1.539,1.859
	c1.367-0.295,2.834-2.713,4.08-7.239c0.168-2.735,0.785-6.002,2.01-9.259c1.014-2.817,2.297-4.395,3.848-4.73
	c1.008-0.219,1.961,0.063,2.535,0.832c0.447-0.178,0.818-0.34,1.283-0.44c2.096-0.453,4.191,1.367,5.127,5.304
	c2.563-1.475,3.184-4.009,3.934-5.291c0.379-7.76,0.607-10.953,2.295-11.318c0.852-0.184,2.072,0.201,2.273,1.132
	c0.234,1.085-0.48,4.163-0.707,9.489c1.648-4.01,3.031-6.258,4.658-6.611C83.423,35.902,86.069,38.01,87.044,42.507z M64.519,49.085
	c-0.303-1.396-1.012-2.053-1.865-1.868c-2.328,0.504-5.375,8.551-4.15,14.212c0.352,1.628,1.063,2.286,2.148,2.051
	C63.212,62.926,65.743,54.747,64.519,49.085z M83.159,42.942c-0.352-1.629-0.986-2.305-1.684-2.153
	c-1.24,0.269-4.438,5.75-5.398,15.943c0.475,1.439,1.855,2.196,3.096,1.927c2.094-0.452,3.088-2.615,3.832-6.673
	C83.663,48.272,83.63,45.113,83.159,42.942z"/>
</svg>
