<?xml version="1.0" encoding="iso-8859-1"?>
<!-- Generator: Adobe Illustrator 15.0.0, SVG Export Plug-In . SVG Version: 6.00 Build 0)  -->
<!DOCTYPE svg PUBLIC "-//W3C//DTD SVG 1.1//EN" "http://www.w3.org/Graphics/SVG/1.1/DTD/svg11.dtd">
<svg version="1.1" id="Icons" xmlns="http://www.w3.org/2000/svg" xmlns:xlink="http://www.w3.org/1999/xlink" x="0px" y="0px"
	 width="100px" height="100px" viewBox="0 0 100 100" style="enable-background:new 0 0 100 100;" xml:space="preserve">
<path id="last.fm" d="M77.033,76.691c-9.374-0.038-14.369-4.654-17.841-12.787l-0.989-2.22L49.641,42.04
	c-2.835-6.954-9.881-11.652-17.827-11.652c-10.752,0-19.475,8.783-19.475,19.615c0,10.833,8.723,19.616,19.475,19.616
	c7.5,0,14.026-4.27,17.278-10.531l3.464,8.038C47.642,73.159,40.171,77,31.813,77C17.005,77,5,64.921,5,50.003
	C5,35.094,17.005,23,31.813,23c11.178,0,20.201,6.009,24.785,16.658c0.352,0.826,4.849,11.423,8.775,20.441
	c2.432,5.583,4.503,9.284,11.228,9.513c6.606,0.228,11.14-3.82,11.14-8.938c0-5-3.457-6.202-9.294-8.156
	c-10.488-3.48-15.908-6.976-15.908-15.353c0-8.171,5.521-13.62,14.494-13.62c5.846,0,10.063,2.618,12.985,7.838l-5.734,2.949
	c-2.161-3.045-4.541-4.247-7.572-4.247c-4.213,0-7.215,2.949-7.215,6.872c0,5.568,4.943,6.409,11.865,8.695
	C90.672,48.706,95,52.193,95,60.902C95,70.047,87.207,76.706,77.033,76.691z"/>
</svg>
