<?xml version="1.0" encoding="iso-8859-1"?>
<!-- Generator: Adobe Illustrator 15.0.0, SVG Export Plug-In . SVG Version: 6.00 Build 0)  -->
<!DOCTYPE svg PUBLIC "-//W3C//DTD SVG 1.1//EN" "http://www.w3.org/Graphics/SVG/1.1/DTD/svg11.dtd">
<svg version="1.1" id="Icons" xmlns="http://www.w3.org/2000/svg" xmlns:xlink="http://www.w3.org/1999/xlink" x="0px" y="0px"
	 width="100px" height="100px" viewBox="0 0 100 100" style="enable-background:new 0 0 100 100;" xml:space="preserve">
<path id="LoveDsgn" style="fill-rule:evenodd;clip-rule:evenodd;" d="M74.521,5.058c-6.43-0.272-9.594,0.393-13.406,2.298
	c-5.045,2.511-8.17,7.65-11.01,14.128c-3.89-6.813-6.189-11.518-11.871-14.324c-3.449-1.709-6.986-2.638-14.24-1.673
	c-5.719,1.307-11.785,5.577-13.109,15.267c-0.982,3.442-0.281,10.742,4.521,17.911c1.443,2.158,3.11,5.194,5.521,8.461
	c4.789,6.501,11.088,14.15,14.371,19.28c8.251,12.902,9.527,15.066,12.029,20.912c0.415,0.821,2.496,6.862,2.915,7.683
	c2.43-11.007,11.706-26.505,23.052-39.858c11.578-13.625,20.247-29.207,14.254-40.049C84.924,9.516,80.208,6.583,74.521,5.058z"/>
</svg>
