<?xml version="1.0" encoding="iso-8859-1"?>
<!-- Generator: Adobe Illustrator 15.0.0, SVG Export Plug-In . SVG Version: 6.00 Build 0)  -->
<!DOCTYPE svg PUBLIC "-//W3C//DTD SVG 1.1//EN" "http://www.w3.org/Graphics/SVG/1.1/DTD/svg11.dtd">
<svg version="1.1" id="Layer_1" xmlns="http://www.w3.org/2000/svg" xmlns:xlink="http://www.w3.org/1999/xlink" x="0px" y="0px"
	 width="100px" height="100px" viewBox="0 0 100 100" style="enable-background:new 0 0 100 100;" xml:space="preserve">
<path id="Mister_Wong" style="fill-rule:evenodd;clip-rule:evenodd;" d="M32.189,48.242c-6.048,6.331-13.074,11.68-19.59,17.536
	c-1.193-0.627-2.106-1.537-2.733-2.73c6.657-5.566,13.163-11.289,19.59-17.086C30.563,46.528,31.382,47.378,32.189,48.242z
	 M67.718,47.326c-0.455,0.989-1.668,1.22-2.051,2.281c6.714,5.889,13.513,11.7,20.728,17.081c0.824-0.771,1.836-1.352,2.281-2.5
	C81.54,58.715,75.163,52.488,67.718,47.326z M28.77,19.766c-5.177-0.092-12.349,0.02-18.903,0c0,1.068,0,2.124,0,3.192
	c5.929,0.521,12.826,0.079,19.135,0.23c1.744,13.585,7.108,23.563,19.586,26.418c0,7.366,0,14.727,0,22.092
	c-18.491,1.477-32.123,7.814-36.442,23.465c3.363,0.508,7.656,0.084,11.389,0.223c3.756-10.439,12.247-16.143,25.054-17.541
	c0,5.77,0,11.547,0,17.318c0.887,0.475,2.618,0.111,3.871,0.223c0.148-5.922-0.297-12.449,0.23-17.996
	c14.868,0.771,24.896,6.383,28.925,17.996c2.43,0,4.86,0,7.287,0c-4.082-16.031-18.34-21.895-36.442-23.912
	c0-7.365,0-14.732,0-22.098C64.2,46.238,68.872,36.036,70.91,23.189c5.994,0,11.995,0,17.99,0c0.521-1.042,0.01-2.229,0-3.423
	c-6.589-0.264-11.422,0.158-18.222-0.224c0.014-5.632-0.999-10.235-2.729-14.12c-2.052,0-4.103,0-6.153,0
	c1.227,4.168,2.997,8.989,2.282,14.344c-7.231-0.455-18.769,0.62-27.335-0.455c0.013-5.453,1.378-9.549,2.506-13.889
	c-2.506,0-5.009,0-7.519,0C29.634,8.964,29.133,15.236,28.77,19.766z M37.426,23.189c8.883,0,17.763,0,26.652,0
	c-0.805,8.329-3.806,18.623-11.162,20.496c-1.754,0.442-3.426,0.429-5.015,0c-7.07-1.919-9.797-11.679-10.931-19.817
	C36.96,23.479,37.139,23.275,37.426,23.189z"/>
</svg>
