<?xml version="1.0" encoding="iso-8859-1"?>
<!-- Generator: Adobe Illustrator 15.0.0, SVG Export Plug-In . SVG Version: 6.00 Build 0)  -->
<!DOCTYPE svg PUBLIC "-//W3C//DTD SVG 1.1//EN" "http://www.w3.org/Graphics/SVG/1.1/DTD/svg11.dtd">
<svg version="1.1" id="Icons" xmlns="http://www.w3.org/2000/svg" xmlns:xlink="http://www.w3.org/1999/xlink" x="0px" y="0px"
	 width="100px" height="100px" viewBox="0 0 100 100" style="enable-background:new 0 0 100 100;" xml:space="preserve">
<path id="Mixx_1_" d="M46.967,68.514c-2.48,0-4.772-0.67-6.658-1.804c2.906,0.817,6.424,0.652,9.863-0.687
	c4.01-1.558,7.015-4.365,8.44-7.455C58.586,64.066,53.385,68.514,46.967,68.514z M48.7,74.453c8.307,0,15.269-5.151,17.262-12.12
	c-2.708,5.112-8.335,9.065-15.285,10.046c-6.166,0.858-11.977-0.822-16.004-4.123C37.938,72.026,43.001,74.453,48.7,74.453z
	 M71.048,53.857c0.044,0.587,0.088,1.176,0.088,1.763c0,12.399-9.953,22.451-22.236,22.451c-8.91,0-16.573-5.306-20.12-12.946
	c2.679,9.075,11.052,15.7,20.979,15.7c12.093,0,21.895-9.815,21.895-21.929C71.653,57.158,71.43,55.473,71.048,53.857z
	 M84.033,61.208c0,19.099-15.447,34.58-34.5,34.58c-19.053,0-34.5-15.481-34.5-34.58c0-14.124,8.461-26.251,20.57-31.619
	l-6.39-18.573c-0.739-2.149,0.443-4.422,2.624-5.045l0.089-0.024c0.369-0.11,0.741-0.158,1.104-0.158
	c1.78,0,3.377,1.204,3.812,3.043l4.447,18.835c2.646-0.652,5.397-1.035,8.244-1.035C68.586,26.631,84.033,42.111,84.033,61.208z
	 M77.384,61.194c0-15.407-12.469-27.903-27.852-27.903c-2.32,0-4.561,0.314-6.715,0.851l5.193,21.995
	c0.522,2.215,0.381,4.229-0.311,4.482c-0.053,0.018-0.105,0.028-0.159,0.028c-0.704,0-1.764-1.485-2.45-3.477l-7.31-21.249
	c-9.502,4.444-16.103,14.077-16.103,25.272c0,15.409,12.471,27.896,27.854,27.896C64.916,89.091,77.384,76.604,77.384,61.194z"/>
</svg>
