<?xml version="1.0" encoding="iso-8859-1"?>
<!-- Generator: Adobe Illustrator 15.0.0, SVG Export Plug-In . SVG Version: 6.00 Build 0)  -->
<!DOCTYPE svg PUBLIC "-//W3C//DTD SVG 1.1//EN" "http://www.w3.org/Graphics/SVG/1.1/DTD/svg11.dtd">
<svg version="1.1" id="Icons" xmlns="http://www.w3.org/2000/svg" xmlns:xlink="http://www.w3.org/1999/xlink" x="0px" y="0px"
	 width="100px" height="100px" viewBox="0 0 100 100" style="enable-background:new 0 0 100 100;" xml:space="preserve">
<path id="MobileMe" style="fill-rule:evenodd;clip-rule:evenodd;" d="M95,62.699C95,72.53,87.088,80.5,77.332,80.5H22.665
	C12.909,80.5,5,72.53,5,62.699c0-8.879,6.45-16.234,14.889-17.58c-0.107-0.623-0.166-1.264-0.166-1.924
	c0-6.229,5.012-11.278,11.196-11.278c2.758,0,5.285,1.005,7.235,2.677C41.63,26.702,46.086,19.5,58.587,19.5
	c15.161,0,22.347,11.781,22.347,24.213c0,0.52-0.022,1.035-0.057,1.545C88.936,46.912,95,54.092,95,62.699z"/>
</svg>
