<?xml version="1.0" encoding="iso-8859-1"?>
<!-- Generator: Adobe Illustrator 15.0.0, SVG Export Plug-In . SVG Version: 6.00 Build 0)  -->
<!DOCTYPE svg PUBLIC "-//W3C//DTD SVG 1.1//EN" "http://www.w3.org/Graphics/SVG/1.1/DTD/svg11.dtd">
<svg version="1.1" id="Layer_1" xmlns="http://www.w3.org/2000/svg" xmlns:xlink="http://www.w3.org/1999/xlink" x="0px" y="0px"
	 width="100px" height="100px" viewBox="0 0 100 100" style="enable-background:new 0 0 100 100;" xml:space="preserve">
<path id="MSN_Messenger" d="M5.007,58.322c1.491-13.895,13.04-18.81,14.731-19.455c-2.87-2.27-4.708-5.747-4.708-9.644
	c0-6.842,5.659-12.387,12.642-12.387c6.98,0,12.643,5.545,12.643,12.387c0,3.86-1.803,7.308-4.628,9.581
	c2.364,0.834,4.687,2.081,6.764,3.708c-5.495,2.747-17.593,10.665-19.428,27.755c-0.003,0.145-0.003,0.283-0.003,0.423
	c-10.629-0.667-11.714-3.548-11.714-3.548V67.14c-0.676-0.656-1.201-1.46-1.521-2.466c-1.549-0.357-2.522-1.289-2.522-1.289
	S4.885,62.5,5.007,58.322z M49.324,42.951c-2.508,0.959-19.614,8.24-21.827,28.829c-0.181,6.19,3.34,7.499,3.34,7.499s0,0,0,0.002
	c0,0,1.446,1.379,3.743,1.908c0.473,1.49,1.248,2.684,2.252,3.656v0.003c0,0,1.686,4.499,18.627,5.33
	c0.251,0.044,0.498,0.084,0.743,0.13c1.404,0,2.809,0,4.213,0c0.528,0,1.067,0.004,1.621,0c1.616,0,3.229,0,4.842,0
	c0.417-0.076,0.84-0.146,1.266-0.215c17.408-1.158,19.241-6.597,19.241-6.597l-0.003-0.005c0.462-0.68,0.846-1.439,1.121-2.303
	c7.923-1.566,7.297-10.995,4.925-18.238c-3.296-10.057-11.683-16.986-20.474-20.092c4.186-3.365,6.857-8.475,6.857-14.194
	c0-10.137-8.387-18.354-18.732-18.354c-10.345,0-18.732,8.218-18.732,18.354C42.347,34.439,45.069,39.586,49.324,42.951z"/>
</svg>
