<?xml version="1.0" encoding="iso-8859-1"?>
<!-- Generator: Adobe Illustrator 15.0.0, SVG Export Plug-In . SVG Version: 6.00 Build 0)  -->
<!DOCTYPE svg PUBLIC "-//W3C//DTD SVG 1.1//EN" "http://www.w3.org/Graphics/SVG/1.1/DTD/svg11.dtd">
<svg version="1.1" id="Icons" xmlns="http://www.w3.org/2000/svg" xmlns:xlink="http://www.w3.org/1999/xlink" x="0px" y="0px"
	 width="100px" height="100px" viewBox="0 0 100 100" style="enable-background:new 0 0 100 100;" xml:space="preserve">
<path id="Myspace__x28_alt_x29_" d="M70.592,35.255c-8.301,0-15.035-6.717-15.035-14.998c0-8.282,6.734-15.001,15.035-15.001
	s15.033,6.719,15.033,15.001C85.625,28.538,78.893,35.255,70.592,35.255L70.592,35.255z M58.292,49.709
	c0-8.286-6.73-14.998-15.034-14.998c-8.305,0-15.033,6.712-15.033,14.998c0,0.34,0.027,0.668,0.051,1.002h-0.051v25.998h30.067
	V50.711h-0.053C58.264,50.377,58.292,50.049,58.292,49.709L58.292,49.709z M43.258,32.707c6.087,0,11.023-4.922,11.023-10.998
	c0-6.071-4.937-10.998-11.023-10.998c-6.086,0-11.023,4.927-11.023,10.998C32.234,27.785,37.172,32.707,43.258,32.707L43.258,32.707
	z M91.092,58.438c0-11.3-9.177-20.456-20.5-20.456c-11.325,0-20.5,9.156-20.5,20.456c0,0.46,0.037,0.911,0.068,1.36h-0.068v35.457
	h41V59.799h-0.068C91.054,59.35,91.092,58.898,91.092,58.438L91.092,58.438z M21.392,33.073c-6.796,0-12.3,5.491-12.3,12.272
	c0,0.275,0.021,0.547,0.041,0.82H9.092v21.272h24.6V46.166H33.65c0.018-0.273,0.041-0.545,0.041-0.82
	C33.691,38.564,28.186,33.073,21.392,33.073L21.392,33.073z M21.392,31.438c4.979,0,9.019-4.03,9.019-9s-4.039-9-9.019-9
	c-4.98,0-9.021,4.03-9.021,9S16.411,31.438,21.392,31.438L21.392,31.438z"/>
</svg>
