<?xml version="1.0" encoding="iso-8859-1"?>
<!-- Generator: Adobe Illustrator 15.0.0, SVG Export Plug-In . SVG Version: 6.00 Build 0)  -->
<!DOCTYPE svg PUBLIC "-//W3C//DTD SVG 1.1//EN" "http://www.w3.org/Graphics/SVG/1.1/DTD/svg11.dtd">
<svg version="1.1" id="Layer_1" xmlns="http://www.w3.org/2000/svg" xmlns:xlink="http://www.w3.org/1999/xlink" x="0px" y="0px"
	 width="100px" height="100px" viewBox="0 0 100 100" style="enable-background:new 0 0 100 100;" xml:space="preserve">
<path id="Ping" d="M5,29.325c2.434-0.428,5.732-0.749,10.162-0.749c4.865,0,8.379,1.016,10.703,2.938
	c2.162,1.764,3.568,4.594,3.568,7.957c0,3.418-1.082,6.195-3.082,8.118c-2.701,2.616-6.811,3.897-11.514,3.897
	c-1.242,0-2.324-0.053-3.242-0.266v13.617H5V29.325z M11.596,46.039c0.865,0.269,1.891,0.32,3.242,0.32
	c4.973,0,8.002-2.456,8.002-6.621c0-4.005-2.813-6.088-7.406-6.088c-1.838,0-3.135,0.16-3.838,0.32V46.039z M31.596,64.838V38.83
	h6.648v26.008H31.596z M42.73,46.574c0-2.991-0.109-5.5-0.217-7.744h5.783l0.324,3.898h0.164c1.188-2.028,4.053-4.486,8.432-4.486
	c4.594,0,9.353,2.938,9.353,11.162v15.434H59.92V50.152c0-3.738-1.406-6.569-5.027-6.569c-2.648,0-4.486,1.87-5.189,3.846
	c-0.217,0.534-0.324,1.335-0.324,2.083v15.326H42.73V46.574z M94.782,61.047c0,5.447-1.135,9.346-3.891,11.801
	C88.19,75.252,84.353,76,80.729,76c-3.35,0-6.918-0.748-9.188-2.082l1.459-4.967c1.676,0.961,4.484,1.975,7.676,1.975
	c4.324,0,7.568-2.244,7.568-7.85v-2.244h-0.109c-1.514,2.297-4.164,3.846-7.676,3.846c-6.541,0-11.189-5.34-11.189-12.711
	c0-8.544,5.621-13.725,11.945-13.725c4.053,0,6.379,1.924,7.623,4.06h0.105l0.273-3.472h5.783c-0.107,1.762-0.219,3.898-0.219,7.478
	V61.047z M88.136,49.244c0-0.641-0.053-1.229-0.215-1.762c-0.705-2.404-2.596-4.22-5.408-4.22c-3.73,0-6.486,3.205-6.486,8.491
	c0,4.432,2.27,8.012,6.434,8.012c2.484,0,4.648-1.604,5.404-4.006c0.219-0.641,0.271-1.549,0.271-2.297V49.244z M34.951,24
	c-3.297,0-5.969,2.641-5.969,5.896c0,3.255,2.672,5.896,5.969,5.896c3.295,0,5.967-2.641,5.967-5.896
	C40.918,26.641,38.246,24,34.951,24z M34.951,34.613c-2.637,0-4.775-2.112-4.775-4.717c0-2.605,2.139-4.717,4.775-4.717
	c2.635,0,4.773,2.111,4.773,4.717C39.725,32.501,37.586,34.613,34.951,34.613z M37.137,31.477c0.037,0.5-0.344,0.957-0.852,1.021
	c-0.51,0.061-0.953-0.295-0.992-0.797c-0.039-0.5,0.344-0.958,0.852-1.02c0.162-0.02,0.316,0.002,0.453,0.058v-2.463l-2.387,0.438
	v3.076h-0.004c0.002,0.01,0.004,0.018,0.004,0.025c0.037,0.502-0.344,0.958-0.854,1.021c-0.508,0.062-0.951-0.294-0.99-0.795
	s0.342-0.958,0.852-1.021c0.16-0.02,0.314,0.004,0.451,0.06v-3.547v-0.001l3.465-0.584l0.002-0.002l0,0h0.002l-0.002,0.016v4.488
	h-0.004C37.135,31.459,37.135,31.467,37.137,31.477z"/>
</svg>
