<?xml version="1.0" encoding="iso-8859-1"?>
<!-- Generator: Adobe Illustrator 15.0.0, SVG Export Plug-In . SVG Version: 6.00 Build 0)  -->
<!DOCTYPE svg PUBLIC "-//W3C//DTD SVG 1.1//EN" "http://www.w3.org/Graphics/SVG/1.1/DTD/svg11.dtd">
<svg version="1.1" id="Icons" xmlns="http://www.w3.org/2000/svg" xmlns:xlink="http://www.w3.org/1999/xlink" x="0px" y="0px"
	 width="100px" height="100px" viewBox="0 0 100 100" style="enable-background:new 0 0 100 100;" xml:space="preserve">
<path id="Playstation" style="fill-rule:evenodd;clip-rule:evenodd;" d="M53.459,85l-13.737-5.889V15
	c0,0,29.854,5.016,33.963,17.445c4.111,12.43-2.295,20.481-4.542,20.717c-6.274,0.654-8.653-3.271-8.653-3.271V29.828l-6.814-2.835
	L53.459,85z M57.029,76.168v7.521c0,0,32.341-10.467,37.1-14.5c4.759-4.034-11.141-14.064-19.685-12.103
	c0,0-9.079,0.442-17.307,4.034c-0.078,0.033,0,6.759,0,6.759l20.875-4.905l7.355,3.271L57.029,76.168z M36.261,75.623
	c0,0-4.218,2.18-13.628,2.07S4.893,74.967,5.001,69.299c0.108-5.67,15.576-11.885,31.152-14.502v7.959l-16.549,4.361
	c0,0-2.833,3.602,0.974,3.707c8.653,0.242,15.792-2.072,15.792-2.072L36.261,75.623z"/>
</svg>
