<?xml version="1.0" encoding="iso-8859-1"?>
<!-- Generator: Adobe Illustrator 15.0.0, SVG Export Plug-In . SVG Version: 6.00 Build 0)  -->
<!DOCTYPE svg PUBLIC "-//W3C//DTD SVG 1.1//EN" "http://www.w3.org/Graphics/SVG/1.1/DTD/svg11.dtd">
<svg version="1.1" id="Icons" xmlns="http://www.w3.org/2000/svg" xmlns:xlink="http://www.w3.org/1999/xlink" x="0px" y="0px"
	 width="100px" height="100px" viewBox="0 0 100 100" style="enable-background:new 0 0 100 100;" xml:space="preserve">
<path id="Posterous" d="M30.757,95V60.946l0.265-0.632h0.986l0.185,0.312c3.69,6.073,10.861,9.701,19.188,9.701
	C65.625,70.327,80,59.923,80,36.681C80,18.023,69.052,5,53.369,5c-9.882,0-17.575,4.131-22.235,11.953l-0.441,0.304h-0.955
	L29.081,6.318H20c0.272,6.184,0.505,12.424,0.505,20.199V95H30.757z M30.757,32.453c0-1.246,0.265-2.765,0.81-4.753
	c2.109-8.669,9.602-14.727,18.225-14.727c11.598,0,19.693,9.965,19.693,24.234c0,15.356-7.887,25.281-20.094,25.281
	c-8.599,0-15.875-5.643-18.081-14.04c-0.376-1.374-0.553-2.94-0.553-4.922V32.453z"/>
</svg>
