<?xml version="1.0" encoding="iso-8859-1"?>
<!-- Generator: Adobe Illustrator 15.0.0, SVG Export Plug-In . SVG Version: 6.00 Build 0)  -->
<!DOCTYPE svg PUBLIC "-//W3C//DTD SVG 1.1//EN" "http://www.w3.org/Graphics/SVG/1.1/DTD/svg11.dtd">
<svg version="1.1" id="Icons" xmlns="http://www.w3.org/2000/svg" xmlns:xlink="http://www.w3.org/1999/xlink" x="0px" y="0px"
	 width="100px" height="100px" viewBox="0 0 100 100" style="enable-background:new 0 0 100 100;" xml:space="preserve">
<path id="Qik" d="M70.279,95c0.147,0,0.323,0,0.48,0c3.955,0,7.91,0,11.867,0c1.651-10.527,3.057-19.925,4.551-29.31
	c1.524-9.65,4.083-19.125,4.883-29.098c1.554-19.828-10.313-30.18-28.892-31.412c-20.305-1.376-34.088,5.275-43.141,14.398
	c-6.906,6.924-11.575,15.432-12.18,26.703C6.91,64.304,20.526,78.123,44.016,76.17c2.658-0.244,5.402-0.987,7.893-2.11
	c3.691-1.621,6.193-4.482,9.143-6.29C58.824,78.261,54.819,94.846,70.279,95z M57.7,54.936c-3.693,2.637-12.18,4.142-17.631,0.802
	c-9.648-5.939-3.721-24.596,3.331-29.869c1.963-1.475,4.416-2.529,7.921-2.9c2.823-0.282,7.736,0.303,10.032,1.865
	C69.617,30.42,65.514,49.378,57.7,54.936z"/>
</svg>
