<?xml version="1.0" encoding="iso-8859-1"?>
<!-- Generator: Adobe Illustrator 15.0.0, SVG Export Plug-In . SVG Version: 6.00 Build 0)  -->
<!DOCTYPE svg PUBLIC "-//W3C//DTD SVG 1.1//EN" "http://www.w3.org/Graphics/SVG/1.1/DTD/svg11.dtd">
<svg version="1.1" id="Icons" xmlns="http://www.w3.org/2000/svg" xmlns:xlink="http://www.w3.org/1999/xlink" x="0px" y="0px"
	 width="100px" height="100px" viewBox="0 0 100 100" style="enable-background:new 0 0 100 100;" xml:space="preserve">
<path id="Scribd" d="M63.449,85.189c-0.67,0.815-1.385,1.621-2.184,2.388C56.133,92.526,49.916,95,42.615,95
	c-7.109,0-13.398-1.93-18.848-5.803c-5.445-3.872-9.637-9.671-12.572-17.409l0.219-0.062C11.172,70.888,11,70.018,11,69.095
	c0-5.357,4.371-9.699,9.762-9.699c5.393,0,9.76,4.342,9.76,9.699c0,2.751-1.162,5.214-3.004,6.984
	c3.857,4.443,8.744,6.718,14.697,6.718c4.23,0,7.746-1.257,10.545-3.771c2.805-2.51,4.203-5.687,4.203-9.519
	c0-2.295-0.732-4.595-2.201-6.911c-1.471-2.317-3.295-4.223-5.479-5.719c-2.178-1.501-5.656-3.224-10.41-5.159
	c-4.764-1.94-8.42-3.719-10.99-5.329c-2.568-1.617-4.791-3.537-6.666-5.766c-1.867-2.23-3.244-4.453-4.115-6.66
	c-0.869-2.212-1.307-4.574-1.307-7.092c0-6.056,2.447-11.213,7.342-15.476C28.033,7.131,33.971,5,40.951,5
	c4.625,0,9.32,0.995,14.076,2.986c3.959,1.65,7.328,4.063,10.174,7.151c2.037,1.782,3.35,4.36,3.35,7.261
	c0,5.361-4.371,9.703-9.764,9.703c-5.389,0-9.762-4.342-9.762-9.703c0-1.422,0.33-2.761,0.879-3.978
	c-1.961-0.971-4.572-1.483-7.918-1.483c-4.172,0-7.559,0.937-10.152,2.809c-2.598,1.879-3.896,4.287-3.896,7.246
	c0,2.558,1.139,4.813,3.404,6.771c2.266,1.969,6.127,4.113,11.592,6.444c5.461,2.329,9.713,4.5,12.754,6.515
	c3.041,2.008,5.533,4.229,7.492,6.662c1.953,2.43,3.406,4.99,4.359,7.684c0.063,0.17,0.082,0.36,0.141,0.53
	c-4.135,3.421-6.826,8.51-6.826,14.277C60.854,79.285,61.846,82.438,63.449,85.189z M77.742,64.685
	c-6.219,0-11.258,5.012-11.258,11.19s5.039,11.19,11.258,11.19S89,82.054,89,75.875S83.961,64.685,77.742,64.685z"/>
</svg>
