<?xml version="1.0" encoding="iso-8859-1"?>
<!-- Generator: Adobe Illustrator 15.0.0, SVG Export Plug-In . SVG Version: 6.00 Build 0)  -->
<!DOCTYPE svg PUBLIC "-//W3C//DTD SVG 1.1//EN" "http://www.w3.org/Graphics/SVG/1.1/DTD/svg11.dtd">
<svg version="1.1" id="Icons" xmlns="http://www.w3.org/2000/svg" xmlns:xlink="http://www.w3.org/1999/xlink" x="0px" y="0px"
	 width="100px" height="100px" viewBox="0 0 100 100" style="enable-background:new 0 0 100 100;" xml:space="preserve">
<path id="SmugMug" d="M41.395,11.75c0,3.731-3.896,6.752-8.695,6.752c-4.805,0-8.703-3.021-8.703-6.752
	c0-3.727,3.898-6.75,8.703-6.75C37.499,5,41.395,8.023,41.395,11.75z M71.842,5c-4.799,0-8.7,3.023-8.7,6.75
	c0,3.731,3.9,6.752,8.7,6.752c4.804,0,8.7-3.021,8.7-6.752C80.542,8.023,76.646,5,71.842,5z M95,39.316
	C95,45.962,80.128,95,41.892,95C3.658,95-0.595,59.051,10.029,36.891c2.124-4.436,4.248-4.887,4.248-4.887h74.348
	C88.625,32.004,95,32.662,95,39.316z M85.986,41.005H17.799c-4.503,9-6.342,23.434-0.31,33.64
	c5.573,9.406,16.344,11.371,24.403,11.371C70.885,86.016,83.829,50.005,85.986,41.005z"/>
</svg>
