<?xml version="1.0" encoding="iso-8859-1"?>
<!-- Generator: Adobe Illustrator 15.0.0, SVG Export Plug-In . SVG Version: 6.00 Build 0)  -->
<!DOCTYPE svg PUBLIC "-//W3C//DTD SVG 1.1//EN" "http://www.w3.org/Graphics/SVG/1.1/DTD/svg11.dtd">
<svg version="1.1" id="Layer_1" xmlns="http://www.w3.org/2000/svg" xmlns:xlink="http://www.w3.org/1999/xlink" x="0px" y="0px"
	 width="100px" height="100px" viewBox="0 0 100 100" style="enable-background:new 0 0 100 100;" xml:space="preserve">
<path id="Squarespace" d="M19.906,46.577l27.025-27.187c6.785-6.822,17.781-6.822,24.562,0c1.624,1.71,1.548,4.477-0.123,6.158
	c-1.697,1.708-4.442,1.708-6.143,0l-0.41-0.476c-3.41-2.908-8.527-2.743-11.746,0.497L25.439,53.362
	c-1.82,1.687-4.568,1.687-6.263-0.018c-1.697-1.705-1.697-4.472,0-6.177C19.404,46.94,19.647,46.744,19.906,46.577z M80.58,47.168
	c-1.697-1.705-4.443-1.705-6.14,0c-0.226,0.23-0.424,0.476-0.592,0.737L46.932,74.981c-3.392,3.41-8.891,3.41-12.282,0l-0.123-0.019
	c-1.694-1.705-4.442-1.705-6.14,0c-1.694,1.702-1.694,4.472,0,6.174c0.217,0.217,0.448,0.408,0.692,0.573
	c6.82,6.263,17.397,6.082,23.992-0.552L80.58,53.345C82.274,51.64,82.274,48.873,80.58,47.168z M38.326,65.106
	c-0.257,0.17-0.503,0.365-0.728,0.592c-1.697,1.703-1.697,4.472,0,6.174c1.695,1.705,4.442,1.705,6.263,0.021l27.632-27.798
	c3.392-3.41,8.891-3.41,12.279,0c3.396,3.412,3.396,8.945,0,12.355L57.571,82.931c3.395,3.41,8.891,3.41,12.282,0l20.062-20.304
	c6.78-6.822,6.78-17.883,0-24.708c-6.78-6.818-17.778-6.818-24.562,0L38.326,65.106z M34.649,62.627l27.509-27.812
	c1.696-1.707,1.696-4.474,0-6.176c-1.694-1.707-4.445-1.707-6.14,0c-0.228,0.225-0.424,0.474-0.589,0.735L28.51,56.451
	c-3.392,3.412-8.889,3.412-12.279,0c-3.395-3.41-3.395-8.943,0-12.355l26.201-26.478c-3.39-3.413-8.891-3.413-12.282,0
	L10.088,37.919c-6.783,6.825-6.783,17.886,0,24.708C16.871,69.451,27.871,69.451,34.649,62.627z"/>
</svg>
