<?xml version="1.0" encoding="iso-8859-1"?>
<!-- Generator: Adobe Illustrator 15.0.0, SVG Export Plug-In . SVG Version: 6.00 Build 0)  -->
<!DOCTYPE svg PUBLIC "-//W3C//DTD SVG 1.1//EN" "http://www.w3.org/Graphics/SVG/1.1/DTD/svg11.dtd">
<svg version="1.1" id="Icons" xmlns="http://www.w3.org/2000/svg" xmlns:xlink="http://www.w3.org/1999/xlink" x="0px" y="0px"
	 width="100px" height="100px" viewBox="0 0 100 100" style="enable-background:new 0 0 100 100;" xml:space="preserve">
<path id="Squidoo" style="fill-rule:evenodd;clip-rule:evenodd;" d="M82.969,76.556c-1.169,3.917-4.876,6.27-8.276,5.248
	s-5.209-5.022-4.039-8.939c1.17-3.918,4.874-6.267,8.277-5.245C82.331,68.638,84.138,72.638,82.969,76.556z M68.626,94.856
	c-8.398-0.945-14.6-8.007-16.085-16.12c-0.935-5.086,0.132-8.817-3.22-10.071c-5.857-2.198-13.518,1.713-20.91,0.805
	c-6.785-0.835-11.846-5.974-12.064-14.506c-0.201-7.832,5.526-18.553-2.414-22.16c3.375,0.708,6.164,1.448,7.642,4.43
	c3.162,6.378-1.829,18.722,3.62,22.162c2.68,1.69,7.527,0.835,10.856,0.403c3.8-0.489,6.45-1.682,10.055-1.611
	c-2.095-2.857-5.36-3.532-7.64-5.238c-2.738-2.049-6.635-5.738-8.445-9.269c-3.171-6.177-2.621-17.309-7.24-21.356
	c-3.508-3.072-9.352-3.143-15.28-2.012c4.112-3.473,14.578-4.062,18.497-1.211c5.27,3.834,4.137,14.564,8.848,20.147
	c2.127,2.519,5.283,3.489,7.641,4.432c2.691,1.077,5.603,2.118,9.65,2.421c3.063-13.325-7.259-15.145-13.67-20.954
	C33.68,20.811,30.493,15.7,31.226,5c1.02,5.587,2.098,10.164,6.034,13.297c2.646,2.108,6.34,2.777,9.249,4.432
	c7.006,3.989,13.381,10.459,15.28,20.147c1.519-0.86,2.587-2.922,4.021-4.835c1.39-1.854,3.15-3.453,3.218-6.045
	c0.094-3.714-2.535-6.654-4.828-8.462C58.606,19.121,48.31,20.24,50.528,8.223c0.998,2.992,1.216,6.328,3.621,8.059
	c3.436,2.476,8.859,2.471,12.868,4.835c3.525,2.077,8.872,6.724,8.846,12.894c-0.027,6.969-6.974,9.734-4.021,17.73
	c6.938,1.895,10.419,2.059,14.075,5.238C100.227,69.414,89.733,97.232,68.626,94.856z M87.911,78.219
	c2.74-9.178-1.493-18.555-9.463-20.944c-7.968-2.389-16.65,3.114-19.391,12.29c-2.742,9.181,1.495,18.558,9.463,20.946
	C76.489,92.902,85.173,87.394,87.911,78.219z"/>
</svg>
