<?xml version="1.0" encoding="iso-8859-1"?>
<!-- Generator: Adobe Illustrator 15.0.0, SVG Export Plug-In . SVG Version: 6.00 Build 0)  -->
<!DOCTYPE svg PUBLIC "-//W3C//DTD SVG 1.1//EN" "http://www.w3.org/Graphics/SVG/1.1/DTD/svg11.dtd">
<svg version="1.1" id="Icons" xmlns="http://www.w3.org/2000/svg" xmlns:xlink="http://www.w3.org/1999/xlink" x="0px" y="0px"
	 width="100px" height="100px" viewBox="0 0 100 100" style="enable-background:new 0 0 100 100;" xml:space="preserve">
<path id="StumbleUpon" d="M95,74.597C95,83.092,88.086,90,79.589,90H77.07c-8.497,0-15.403-6.908-15.403-15.403V55.409
	c0-2.981-2.305-5.532-5.287-5.532H35.534C32.552,49.877,30,52.245,30,55c0,2.852,2.591,5.391,5.651,5.547l3.177,0.169
	c8.432,0.436,15.078,7.201,14.811,15.078C53.378,83.627,46.328,90,37.924,90H5V80h32.924c3.02,0,5.644-2.076,5.722-4.537
	c0.084-2.429-2.362-4.604-5.346-4.76l-3.17-0.169C26.791,70.104,20,63.131,20,55c0-8.269,6.914-15,15.409-15h20.847
	c8.497,0,15.411,6.914,15.411,15.409v19.188c0,2.981,2.422,5.403,5.403,5.403h2.519C82.572,80,85,77.578,85,74.597V10h8.886
	c0.385,0,0.736,0.091,1.114,0.111V74.597z"/>
</svg>
