<?xml version="1.0" encoding="iso-8859-1"?>
<!-- Generator: Adobe Illustrator 15.0.0, SVG Export Plug-In . SVG Version: 6.00 Build 0)  -->
<!DOCTYPE svg PUBLIC "-//W3C//DTD SVG 1.1//EN" "http://www.w3.org/Graphics/SVG/1.1/DTD/svg11.dtd">
<svg version="1.1" id="Icons" xmlns="http://www.w3.org/2000/svg" xmlns:xlink="http://www.w3.org/1999/xlink" x="0px" y="0px"
	 width="100px" height="100px" viewBox="0 0 100 100" style="enable-background:new 0 0 100 100;" xml:space="preserve">
<path id="Technorati" d="M19.662,7.799c4.222-0.483,8.485-0.189,12.726-0.299c-4.287,5.375-8.016,11.549-8.623,18.554
	c-1.252,10.795,4.281,21.429,12.612,28.048c2.201,1.258,1.401,3.953,1.326,6.021c-0.532,5.135-1.295,10.244-1.657,15.396
	c6.52-3.775,12.358-8.708,19.032-12.181c13.483,2.55,28.165,1.008,39.901-6.503c-0.005,5.936,0.008,11.872,0.017,17.81
	c0.151,6.799-4.015,13.479-10.248,16.226c-2.869,1.448-6.133,1.708-9.294,1.612c-17.868-0.072-35.738,0.006-53.604-0.031
	c-8.965-0.057-16.805-8.084-16.832-17.029C4.959,58.971,5.068,42.513,5.05,26.059C4.565,17.482,11.304,9.326,19.662,7.799z
	 M43.204,19.37c-3.002,3.111-5.137,7.245-5.169,11.642c-0.333,5.977,2.997,11.666,7.65,15.211
	c9.858,7.494,24.202,8.088,34.914,2.071c5.915-3.29,10.754-9.38,10.843-16.376c0.226-6.199-3.373-12.03-8.332-15.526
	c-5.553-4.085-12.57-5.856-19.406-5.591C56.129,10.913,48.441,13.78,43.204,19.37z"/>
</svg>
