<?xml version="1.0" encoding="iso-8859-1"?>
<!-- Generator: Adobe Illustrator 15.0.0, SVG Export Plug-In . SVG Version: 6.00 Build 0)  -->
<!DOCTYPE svg PUBLIC "-//W3C//DTD SVG 1.1//EN" "http://www.w3.org/Graphics/SVG/1.1/DTD/svg11.dtd">
<svg version="1.1" id="Layer_1" xmlns="http://www.w3.org/2000/svg" xmlns:xlink="http://www.w3.org/1999/xlink" x="0px" y="0px"
	 width="100px" height="100px" viewBox="0 0 100 100" style="enable-background:new 0 0 100 100;" xml:space="preserve">
<path id="threewords.me" d="M54.129,41.225l23.82-27.576V5H23.047v21.559h11.082V15.279h25.096c1.783,0,4.586-0.377,4.586-0.377
	v0.249c0,0-2.037,1.507-3.439,3.263l-21.91,25.944l2.928,6.517c0.639-0.122,2.932-0.248,5.352-0.248
	c10.955,0,19.873,5.892,19.873,16.421c0,9.776-8.408,16.796-18.473,16.796c-12.865,0-21.91-9.779-21.91-9.779l-6.623,8.9
	c0,0,10.701,12.035,29.17,12.035c18.729,0,30.83-13.287,30.83-28.453C79.607,49.496,65.338,42.354,54.129,41.225z"/>
</svg>
