<?xml version="1.0" encoding="iso-8859-1"?>
<!-- Generator: Adobe Illustrator 15.0.0, SVG Export Plug-In . SVG Version: 6.00 Build 0)  -->
<!DOCTYPE svg PUBLIC "-//W3C//DTD SVG 1.1//EN" "http://www.w3.org/Graphics/SVG/1.1/DTD/svg11.dtd">
<svg version="1.1" id="Layer_1" xmlns="http://www.w3.org/2000/svg" xmlns:xlink="http://www.w3.org/1999/xlink" x="0px" y="0px"
	 width="100px" height="100px" viewBox="0 0 100 100" style="enable-background:new 0 0 100 100;" xml:space="preserve">
<path id="TripIt" d="M60.46,53.827c-0.413-1.07-0.998-2.08-1.742-2.997c1.662-0.977,2.974-1.747,2.974-1.747l14.89-8.812
	c-0.172-0.529-0.267-1.095-0.267-1.682c0-3.015,2.45-5.458,5.474-5.458s5.475,2.443,5.475,5.458c0,3.013-2.451,5.456-5.475,5.456
	c-1.23,0-2.362-0.41-3.277-1.094c-3.311,2.126-7.957,4.979-15.053,9.13L60.46,53.827z M62.796,66.459
	c-0.509,0.145-1.006,0.422-1.484,0.796c-0.183-0.105-0.639-0.363-0.639-0.363c-0.494-0.259-1.071-0.562-2.51-1.519
	c-0.719,0.813-1.545,1.549-2.457,2.189l2.385,1.41c0.003,0.002,1.163,0.673,1.564,0.905c-0.082,0.356-0.145,0.699-0.145,1.007
	c0,0.429,0.059,0.861,0.178,1.286c0.699,2.468,3.232,3.923,5.647,3.242c1.145-0.322,2.101-1.08,2.689-2.131
	c0.393-0.694,0.597-1.482,0.597-2.278c0-0.438-0.059-0.875-0.18-1.301C67.743,67.236,65.207,65.779,62.796,66.459z M58.463,57.194
	c-0.583-5.153-5.983-8.777-12.067-8.095c-6.082,0.684-10.54,5.415-9.958,10.569c0.583,5.152,5.986,8.777,12.067,8.093
	C54.587,67.08,59.046,62.348,58.463,57.194z M88.197,52.217c-3.148,0-5.79,2.137-6.566,5.033c-6.223-0.098-13.3-0.168-20.472-0.197
	c0.028,0.433,0.03,0.869,0.007,1.308c-0.042,0.73-0.161,1.444-0.346,2.14c7.253-0.028,14.414-0.098,20.704-0.194
	c0.611,3.118,3.365,5.472,6.673,5.472c3.757,0,6.803-3.035,6.803-6.78S91.954,52.217,88.197,52.217z M36.727,66.191
	c-0.456-0.491-0.856-1.016-1.21-1.561c-2.709,1.663-5.063,3.156-7.014,4.451c-1.032-0.981-2.352-1.507-3.748-1.453
	c-1.389,0.055-2.675,0.645-3.62,1.66c-0.942,1.016-1.435,2.337-1.382,3.723c0.113,2.859,2.535,5.094,5.404,4.985
	c2.807-0.108,5.006-2.386,5.006-5.183l-0.005-0.201c-0.011-0.316-0.087-0.666-0.181-1.031c0.15-0.087,3.983-2.307,7.711-4.468
	C37.351,66.824,37.03,66.517,36.727,66.191z M17.265,42.699c0.922,0.618,2.029,0.843,3.121,0.629
	c0.574-0.109,1.127-0.392,1.66-0.796c0.265,0.206,5.279,4.086,5.279,4.086l8.238,6.347l0.008,0.006
	c0.595-0.985,1.336-1.894,2.189-2.708l-0.055-0.041c-7.298-5.661-11.685-8.538-14.118-9.975c0.091-0.347,0.161-0.682,0.161-0.983
	l-0.078-0.795c-0.439-2.241-2.627-3.71-4.876-3.271c-1.091,0.212-2.034,0.835-2.655,1.755c-0.467,0.691-0.711,1.487-0.711,2.303
	c0,0.267,0.026,0.535,0.081,0.803C15.723,41.144,16.347,42.082,17.265,42.699z M46.771,37.667c-0.079,2.444-0.144,5.563-0.189,8.562
	c0.548-0.06,1.104-0.093,1.667-0.093c0.554,0,1.102,0.032,1.641,0.093c-0.046-2.999-0.107-6.114-0.186-8.562
	c3.766-0.702,6.484-3.913,6.484-7.741c0-4.369-3.568-7.926-7.953-7.926s-7.949,3.557-7.949,7.926
	C40.286,33.754,43.004,36.967,46.771,37.667z M33.89,58.289c0.021-0.409,0.066-0.814,0.137-1.213
	c-6.252,0.039-12.232,0.106-17.381,0.191c-0.543-2.68-2.918-4.698-5.764-4.698C7.634,52.569,5,55.194,5,58.433
	c0,3.236,2.634,5.859,5.882,5.859c2.596,0,4.797-1.679,5.575-4.007c5.175,0.086,11.196,0.152,17.499,0.192
	C33.854,59.757,33.83,59.025,33.89,58.289z"/>
</svg>
