<?xml version="1.0" encoding="iso-8859-1"?>
<!-- Generator: Adobe Illustrator 15.0.0, SVG Export Plug-In . SVG Version: 6.00 Build 0)  -->
<!DOCTYPE svg PUBLIC "-//W3C//DTD SVG 1.1//EN" "http://www.w3.org/Graphics/SVG/1.1/DTD/svg11.dtd">
<svg version="1.1" id="Icons" xmlns="http://www.w3.org/2000/svg" xmlns:xlink="http://www.w3.org/1999/xlink" x="0px" y="0px"
	 width="100px" height="100px" viewBox="0 0 100 100" style="enable-background:new 0 0 100 100;" xml:space="preserve">
<path id="Windows" d="M23.373,13.481c5.67-2.261,10.644-3.397,15.196-3.481c2.39,0,4.646,0.257,6.785,0.754
	c3.256,0.831,7.762,3.271,9.479,4.251l-8.152,27.759c-4.154-2.649-9.167-5.222-15.946-5.291h-0.006
	c-4.521,0-9.433,1.041-15.125,3.178L23.373,13.481z M36.14,80.052c2.016-6.815,6.857-23.275,8.302-28.195
	c-1.048-0.636-2.116-1.274-3.209-1.864c-4.195-2.145-8.271-3.232-12.12-3.232c-0.522,0-1.046,0.016-1.576,0.061
	c-4.912,0.404-9.395,1.695-12.283,2.697c-0.766,0.279-1.546,0.574-2.357,0.901L5,77.658c5.427-1.998,10.222-2.969,14.617-2.969
	C26.723,74.689,31.877,77.332,36.14,80.052z M84.216,59.753c-5.153,1.655-10.096,2.494-14.719,2.494
	c-8.433,0-14.337-2.72-18.061-5.331l-7.948,27.48C45.846,85.74,53.778,90,59.854,90c4.904,0,10.393-1.252,16.772-3.832
	L84.216,59.753z M95,22.543c-5.17,1.998-10.214,3.016-15.032,3.016c-8.058,0-14-2.781-17.85-5.455L54.036,47.94
	c5.428,3.474,11.277,5.237,17.414,5.237c5.005,0,10.189-1.196,15.421-3.559l-0.016-0.193l0.328-0.079L95,22.543z"/>
</svg>
