<?xml version="1.0" encoding="iso-8859-1"?>
<!-- Generator: Adobe Illustrator 15.0.0, SVG Export Plug-In . SVG Version: 6.00 Build 0)  -->
<!DOCTYPE svg PUBLIC "-//W3C//DTD SVG 1.1//EN" "http://www.w3.org/Graphics/SVG/1.1/DTD/svg11.dtd">
<svg version="1.1" id="Layer_1" xmlns="http://www.w3.org/2000/svg" xmlns:xlink="http://www.w3.org/1999/xlink" x="0px" y="0px"
	 width="100px" height="100px" viewBox="0 0 100 100" style="enable-background:new 0 0 100 100;" xml:space="preserve">
<path id="Yahoo_x21__Messenger" d="M50.001,95C74.855,95,95,74.852,95,50C95,25.146,74.855,5,50.001,5C25.146,5,5,25.146,5,50
	C5,74.852,25.146,95,50.001,95z M61.487,25.391c3.237,0,5.862,2.621,5.862,5.859c0,3.234-2.625,5.857-5.862,5.857
	c-3.235,0-5.858-2.623-5.858-5.857C55.629,28.012,58.252,25.391,61.487,25.391z M39.221,25.391c3.236,0,5.861,2.621,5.861,5.859
	c0,3.234-2.625,5.857-5.861,5.857s-5.859-2.623-5.859-5.857C33.361,28.012,35.984,25.391,39.221,25.391z M18.36,44.139h63.28v11.724
	h-0.13C80.196,72.127,66.605,84.92,49.998,84.92c-16.604,0-30.193-12.793-31.504-29.058H18.36V44.139z M77.344,54.613H21.899v-7.215
	h55.444V54.613z"/>
</svg>
