<?xml version="1.0" encoding="iso-8859-1"?>
<!-- Generator: Adobe Illustrator 15.0.0, SVG Export Plug-In . SVG Version: 6.00 Build 0)  -->
<!DOCTYPE svg PUBLIC "-//W3C//DTD SVG 1.1//EN" "http://www.w3.org/Graphics/SVG/1.1/DTD/svg11.dtd">
<svg version="1.1" id="Layer_1" xmlns="http://www.w3.org/2000/svg" xmlns:xlink="http://www.w3.org/1999/xlink" x="0px" y="0px"
	 width="100px" height="100px" viewBox="0 0 100 100" style="enable-background:new 0 0 100 100;" xml:space="preserve">
<path id="Zerply" d="M18.597,76.097c0.922,0,1.844,0,2.766,0c6.869,0,12.725,0.188,19.07,3.453
	c4.875,2.507,8.904,6.521,13.653,9.314c4.503,2.647,9.644,5.426,14.917,6.05c10.615,1.255,14.882-11.58,13.115-19.903
	c-4.729,3.812-11.325,3.714-17.371,2.058c-5.689-1.898-14.742-7.793-14.742-7.793v0.003c-4.061-2.537-8.829-4.634-13.617-4.417
	c0-2.163,0.063-2.246,1.377-3.772c1.809-2.095,3.617-4.191,5.426-6.287C48.88,48.205,54.57,41.61,60.26,35.015
	c4.843-5.613,9.684-11.225,14.526-16.839c0.464-0.536,2.171-1.916,2.257-2.657c0.294-2.549,0.589-5.098,0.884-7.646
	c0.206-1.768-1.628-1.344-1.628-1.344L76.296,6.52C68.443,8.117,60.375,8.95,52.37,8.583c-4.453-0.203-9.14-0.628-13.32-2.291
	c-0.15-0.061-1.035-0.513-1.866-0.968c-1.204-0.623-2.012-0.221-2.438,0.142c-0.338,0.421-0.695,0.826-1.014,1.259
	c-2.104,2.872-4.061,6.247-4.418,9.853c-0.081,0.804-0.18,2.5,0.262,3.521l-0.004,0.001c0,0,0.049,0.124,0.182,0.322
	c0.023,0.031,0.041,0.065,0.064,0.094c1.002,1.384,5.615,5.549,23.631,1.938C41.725,36.29,30.001,50.126,18.278,63.963
	c-0.002,0.001-0.002,0.001-0.002,0.003c-0.653,0.771-0.76,2.031-0.76,2.031c0,2.455,0,4.908,0,7.363
	c0,0.088-0.008,0.631-0.012,1.211C17.733,75.807,18.282,76.056,18.597,76.097z"/>
</svg>
