<?xml version="1.0" encoding="iso-8859-1"?>
<!-- Generator: Adobe Illustrator 15.0.0, SVG Export Plug-In . SVG Version: 6.00 Build 0)  -->
<!DOCTYPE svg PUBLIC "-//W3C//DTD SVG 1.1//EN" "http://www.w3.org/Graphics/SVG/1.1/DTD/svg11.dtd">
<svg version="1.1" id="Layer_1" xmlns="http://www.w3.org/2000/svg" xmlns:xlink="http://www.w3.org/1999/xlink" x="0px" y="0px"
	 width="100px" height="100px" viewBox="0 0 100 100" style="enable-background:new 0 0 100 100;" xml:space="preserve">
<path id="Zootool" d="M23.26,68.947c2.494,0,6.59-2.185,9.172-4.556C46.051,90.72,49.879,95,59.225,95
	c10.148,0,20.385-7.743,20.385-14.755c0-2.371-1.246-4.466-2.49-5.103c-4.273,2.367-8.102,3.644-11.574,3.644
	c-4.451,0-6.943-2.006-21.096-23.321c10.768-9.474,17.092-15.76,25.277-27.693c7.035-4.737,9.793-8.928,9.793-12.753
	c0-3.279-2.758-7.651-6.316-7.651c-1.695,0-3.029,1.641-4.809,4.465C55.309,6.73,49.167,5,42.402,5
	c-6.32,0-11.484,5.646-11.484,12.206c0,3.736,1.513,5.828,3.826,6.557c3.025-1.819,5.52-2.549,7.12-2.549
	c4.187,0,10.685,1.913,18.694,4.373c-4.004,5.92-14.419,16.854-21.897,22.866c-2.848-2.462-4.63-3.371-7.208-3.371
	c-8.281,0-11.844,9.836-11.844,15.942C19.609,67.217,21.035,68.947,23.26,68.947z"/>
</svg>
